<svg xmlns="http://www.w3.org/2000/svg" xmlns:xlink="http://www.w3.org/1999/xlink" preserveAspectRatio="xMidYMid" width="27" height="31" viewBox="0 0 27 31">
  <defs>
    <style>
      .cls-1 {
        fill: #000;
        filter: url(#color-overlay-1);
        fill-rule: evenodd;
      }
    </style>

    <filter id="color-overlay-1" filterUnits="userSpaceOnUse">
      <feFlood flood-color="#fff"/>
      <feComposite operator="in" in2="SourceGraphic"/>
      <feBlend in2="SourceGraphic" result="solidFill"/>
    </filter>
  </defs>
  <path d="M23.342,15.846 L21.295,13.911 C23.175,13.807 24.676,12.211 24.676,10.258 C24.676,8.239 23.072,6.596 21.101,6.596 C20.984,6.596 20.864,6.602 20.743,6.614 C20.257,6.665 19.794,6.398 19.582,5.948 C18.978,4.668 17.745,3.873 16.365,3.873 C16.120,3.873 15.873,3.899 15.632,3.950 C15.253,4.031 14.860,3.914 14.584,3.637 C13.774,2.827 12.707,2.382 11.580,2.382 C9.608,2.382 7.894,3.752 7.414,5.715 C7.275,6.279 6.761,6.657 6.193,6.613 C6.096,6.604 5.998,6.596 5.898,6.596 C3.928,6.596 2.324,8.239 2.324,10.258 C2.324,12.211 3.824,13.807 5.705,13.911 L3.658,15.847 C1.514,14.940 -0.000,12.778 -0.000,10.258 C-0.000,7.191 2.240,4.651 5.132,4.265 C5.325,4.239 5.492,4.114 5.574,3.933 C6.640,1.566 8.962,-0.000 11.580,-0.000 C13.044,-0.000 14.442,0.487 15.591,1.387 C15.700,1.473 15.835,1.514 15.972,1.505 C16.103,1.496 16.234,1.491 16.365,1.491 C18.259,1.491 20.039,2.447 21.137,3.994 C21.235,4.132 21.387,4.218 21.553,4.232 C24.595,4.469 27.000,7.081 27.000,10.258 C27.000,12.778 25.486,14.940 23.342,15.846 ZM1.523,17.157 L7.765,17.157 C8.213,17.157 8.576,17.529 8.576,17.988 L8.576,30.165 C8.576,30.624 8.213,30.997 7.765,30.997 L1.523,30.997 C1.074,30.997 0.711,30.624 0.711,30.165 L0.711,17.988 C0.711,17.529 1.074,17.157 1.523,17.157 ZM2.018,29.658 L7.243,29.658 L7.243,18.496 L2.018,18.496 L2.018,29.658 ZM2.463,26.184 L6.798,26.184 L6.798,29.118 L2.463,29.118 L2.463,26.184 ZM2.879,28.662 L6.381,28.662 L6.381,26.639 L2.879,26.639 L2.879,28.662 ZM5.548,26.982 L5.964,26.982 L5.964,28.320 L5.548,28.320 L5.548,26.982 ZM4.853,26.982 L5.297,26.982 L5.297,28.320 L4.853,28.320 L4.853,26.982 ZM3.749,28.353 C3.363,28.353 3.050,28.031 3.050,27.636 C3.050,27.241 3.363,26.919 3.749,26.919 C4.135,26.919 4.448,27.241 4.448,27.636 C4.448,28.031 4.135,28.353 3.749,28.353 ZM3.749,27.366 C3.604,27.366 3.485,27.486 3.485,27.635 C3.485,27.784 3.604,27.906 3.749,27.906 C3.894,27.906 4.013,27.784 4.013,27.635 C4.013,27.486 3.894,27.366 3.749,27.366 ZM2.463,22.623 L6.798,22.623 L6.798,25.557 L2.463,25.557 L2.463,22.623 ZM2.879,25.102 L6.381,25.102 L6.381,23.051 L2.879,23.051 L2.879,25.102 ZM5.548,23.393 L5.964,23.393 L5.964,24.731 L5.548,24.731 L5.548,23.393 ZM4.853,23.393 L5.297,23.393 L5.297,24.731 L4.853,24.731 L4.853,23.393 ZM3.749,24.777 C3.363,24.777 3.050,24.456 3.050,24.060 C3.050,23.665 3.363,23.344 3.749,23.344 C4.135,23.344 4.448,23.665 4.448,24.060 C4.448,24.456 4.135,24.777 3.749,24.777 ZM3.749,23.790 C3.604,23.790 3.485,23.913 3.485,24.060 C3.485,24.209 3.604,24.330 3.749,24.330 C3.894,24.330 4.013,24.210 4.013,24.060 C4.013,23.913 3.894,23.790 3.749,23.790 ZM2.463,19.036 L6.798,19.036 L6.798,21.969 L2.463,21.969 L2.463,19.036 ZM2.879,21.514 L6.381,21.514 L6.381,19.464 L2.879,19.464 L2.879,21.514 ZM5.548,19.805 L5.964,19.805 L5.964,21.144 L5.548,21.144 L5.548,19.805 ZM4.853,19.805 L5.297,19.805 L5.297,21.144 L4.853,21.144 L4.853,19.805 ZM3.749,21.190 C3.363,21.190 3.050,20.868 3.050,20.472 C3.050,20.077 3.363,19.756 3.749,19.756 C4.135,19.756 4.448,20.077 4.448,20.472 C4.448,20.869 4.135,21.190 3.749,21.190 ZM3.749,20.203 C3.604,20.203 3.485,20.325 3.485,20.472 C3.485,20.621 3.604,20.742 3.749,20.742 C3.894,20.742 4.013,20.622 4.013,20.472 C4.013,20.325 3.894,20.203 3.749,20.203 ZM10.379,17.157 L16.621,17.157 C17.069,17.157 17.432,17.529 17.432,17.988 L17.432,30.165 C17.432,30.624 17.069,30.997 16.621,30.997 L10.379,30.997 C9.930,30.997 9.567,30.624 9.567,30.165 L9.567,17.988 C9.567,17.529 9.930,17.157 10.379,17.157 ZM10.874,29.658 L16.099,29.658 L16.099,18.496 L10.874,18.496 L10.874,29.658 ZM11.319,26.184 L15.654,26.184 L15.654,29.118 L11.319,29.118 L11.319,26.184 ZM11.735,28.662 L15.237,28.662 L15.237,26.639 L11.735,26.639 L11.735,28.662 ZM14.404,26.982 L14.820,26.982 L14.820,28.320 L14.404,28.320 L14.404,26.982 ZM13.709,26.982 L14.153,26.982 L14.153,28.320 L13.709,28.320 L13.709,26.982 ZM12.605,28.353 C12.220,28.353 11.906,28.031 11.906,27.636 C11.906,27.241 12.220,26.919 12.605,26.919 C12.991,26.919 13.305,27.241 13.305,27.636 C13.305,28.031 12.991,28.353 12.605,28.353 ZM12.605,27.366 C12.460,27.366 12.342,27.486 12.342,27.635 C12.342,27.784 12.460,27.906 12.605,27.906 C12.750,27.906 12.869,27.784 12.869,27.635 C12.869,27.486 12.750,27.366 12.605,27.366 ZM11.319,22.623 L15.654,22.623 L15.654,25.557 L11.319,25.557 L11.319,22.623 ZM11.735,25.102 L15.237,25.102 L15.237,23.051 L11.735,23.051 L11.735,25.102 ZM14.404,23.393 L14.820,23.393 L14.820,24.731 L14.404,24.731 L14.404,23.393 ZM13.709,23.393 L14.153,23.393 L14.153,24.731 L13.709,24.731 L13.709,23.393 ZM12.605,24.777 C12.220,24.777 11.906,24.456 11.906,24.060 C11.906,23.665 12.220,23.344 12.605,23.344 C12.991,23.344 13.305,23.665 13.305,24.060 C13.305,24.456 12.991,24.777 12.605,24.777 ZM12.605,23.790 C12.460,23.790 12.342,23.913 12.342,24.060 C12.342,24.209 12.460,24.330 12.605,24.330 C12.750,24.330 12.869,24.210 12.869,24.060 C12.869,23.913 12.750,23.790 12.605,23.790 ZM11.319,19.036 L15.654,19.036 L15.654,21.969 L11.319,21.969 L11.319,19.036 ZM11.735,21.514 L15.237,21.514 L15.237,19.464 L11.735,19.464 L11.735,21.514 ZM14.404,19.805 L14.820,19.805 L14.820,21.144 L14.404,21.144 L14.404,19.805 ZM13.709,19.805 L14.153,19.805 L14.153,21.144 L13.709,21.144 L13.709,19.805 ZM12.605,21.190 C12.220,21.190 11.906,20.868 11.906,20.472 C11.906,20.077 12.220,19.756 12.605,19.756 C12.991,19.756 13.305,20.077 13.305,20.472 C13.305,20.869 12.991,21.190 12.605,21.190 ZM12.605,20.203 C12.460,20.203 12.342,20.325 12.342,20.472 C12.342,20.621 12.460,20.742 12.605,20.742 C12.750,20.742 12.869,20.622 12.869,20.472 C12.869,20.325 12.750,20.203 12.605,20.203 ZM19.786,16.334 L14.267,11.117 L14.267,16.334 L12.733,16.334 L12.733,11.117 L7.213,16.334 L4.951,16.334 L11.724,9.932 C11.661,9.739 11.626,9.536 11.626,9.322 C11.626,8.262 12.465,7.402 13.500,7.402 C14.535,7.402 15.374,8.262 15.374,9.322 C15.374,9.535 15.339,9.739 15.276,9.932 L22.049,16.334 L19.786,16.334 ZM19.235,17.157 L25.477,17.157 C25.926,17.157 26.288,17.529 26.289,17.988 L26.289,30.165 C26.289,30.624 25.926,30.997 25.477,30.997 L19.235,30.997 C18.787,30.997 18.424,30.624 18.424,30.165 L18.424,17.988 C18.424,17.529 18.787,17.157 19.235,17.157 ZM19.730,29.658 L24.955,29.658 L24.955,18.496 L19.730,18.496 L19.730,29.658 ZM20.175,26.184 L24.510,26.184 L24.510,29.118 L20.175,29.118 L20.175,26.184 ZM20.591,28.662 L24.093,28.662 L24.093,26.639 L20.591,26.639 L20.591,28.662 ZM23.260,26.982 L23.676,26.982 L23.676,28.320 L23.260,28.320 L23.260,26.982 ZM22.565,26.982 L23.009,26.982 L23.009,28.320 L22.565,28.320 L22.565,26.982 ZM21.461,28.353 C21.076,28.353 20.762,28.031 20.762,27.636 C20.762,27.241 21.076,26.919 21.461,26.919 C21.847,26.919 22.161,27.241 22.161,27.636 C22.161,28.031 21.847,28.353 21.461,28.353 ZM21.461,27.366 C21.317,27.366 21.198,27.486 21.198,27.635 C21.198,27.784 21.317,27.906 21.461,27.906 C21.606,27.906 21.725,27.784 21.725,27.635 C21.725,27.486 21.606,27.366 21.461,27.366 ZM20.175,22.623 L24.510,22.623 L24.510,25.557 L20.175,25.557 L20.175,22.623 ZM20.591,25.102 L24.093,25.102 L24.093,23.051 L20.591,23.051 L20.591,25.102 ZM23.260,23.393 L23.676,23.393 L23.676,24.731 L23.260,24.731 L23.260,23.393 ZM22.565,23.393 L23.009,23.393 L23.009,24.731 L22.565,24.731 L22.565,23.393 ZM21.461,24.777 C21.076,24.777 20.762,24.456 20.762,24.060 C20.762,23.665 21.076,23.344 21.461,23.344 C21.847,23.344 22.161,23.665 22.161,24.060 C22.161,24.456 21.847,24.777 21.461,24.777 ZM21.461,23.790 C21.317,23.790 21.198,23.913 21.198,24.060 C21.198,24.209 21.317,24.330 21.461,24.330 C21.606,24.330 21.725,24.210 21.725,24.060 C21.725,23.913 21.606,23.790 21.461,23.790 ZM20.175,19.036 L24.510,19.036 L24.510,21.969 L20.175,21.969 L20.175,19.036 ZM20.591,21.514 L24.093,21.514 L24.093,19.464 L20.591,19.464 L20.591,21.514 ZM23.260,19.805 L23.676,19.805 L23.676,21.144 L23.260,21.144 L23.260,19.805 ZM22.565,19.805 L23.009,19.805 L23.009,21.144 L22.565,21.144 L22.565,19.805 ZM21.461,21.190 C21.076,21.190 20.762,20.868 20.762,20.472 C20.762,20.077 21.076,19.756 21.461,19.756 C21.847,19.756 22.161,20.077 22.161,20.472 C22.161,20.869 21.847,21.190 21.461,21.190 ZM21.461,20.203 C21.317,20.203 21.198,20.325 21.198,20.472 C21.198,20.621 21.317,20.742 21.461,20.742 C21.606,20.742 21.725,20.622 21.725,20.472 C21.725,20.325 21.606,20.203 21.461,20.203 Z" class="cls-1"/>
</svg>
