<svg xmlns="http://www.w3.org/2000/svg" xmlns:xlink="http://www.w3.org/1999/xlink" preserveAspectRatio="xMidYMid" width="40" height="40" viewBox="0 0 40 40">
  <defs>
    <style>
      .cls-1 {
        fill: #000;
        filter: url(#color-overlay-1);
        fill-rule: evenodd;
      }
    </style>

    <filter id="color-overlay-1" filterUnits="userSpaceOnUse">
      <feFlood flood-color="#00e0ff"/>
      <feComposite operator="in" in2="SourceGraphic"/>
      <feBlend in2="SourceGraphic" result="solidFill"/>
    </filter>
  </defs>
  <path d="M40.000,19.483 C40.000,30.245 31.209,38.968 20.364,38.968 C16.921,38.968 13.686,38.088 10.871,36.543 L-0.000,39.999 L3.544,29.544 C1.756,26.608 0.726,23.164 0.726,19.483 C0.726,8.722 9.518,-0.001 20.364,-0.001 C31.210,-0.001 40.000,8.722 40.000,19.483 ZM20.364,3.102 C11.260,3.102 3.854,10.450 3.854,19.483 C3.854,23.068 5.022,26.387 6.999,29.088 L4.936,35.172 L11.281,33.156 C13.888,34.867 17.010,35.865 20.364,35.865 C29.466,35.865 36.873,28.517 36.873,19.484 C36.873,10.450 29.467,3.102 20.364,3.102 ZM30.279,23.971 C30.158,23.772 29.838,23.652 29.357,23.413 C28.875,23.175 26.508,22.019 26.068,21.860 C25.626,21.701 25.305,21.621 24.984,22.099 C24.664,22.577 23.741,23.652 23.460,23.971 C23.179,24.290 22.898,24.330 22.417,24.091 C21.936,23.852 20.385,23.347 18.546,21.721 C17.115,20.455 16.149,18.892 15.868,18.414 C15.588,17.936 15.839,17.678 16.080,17.440 C16.296,17.226 16.561,16.882 16.802,16.604 C17.043,16.325 17.123,16.126 17.283,15.807 C17.444,15.488 17.363,15.210 17.243,14.969 C17.123,14.731 16.159,12.381 15.758,11.424 C15.357,10.468 14.957,10.628 14.675,10.628 C14.395,10.628 14.074,10.588 13.753,10.588 C13.432,10.588 12.910,10.708 12.469,11.186 C12.028,11.664 10.785,12.819 10.785,15.169 C10.785,17.519 12.509,19.789 12.750,20.108 C12.991,20.426 16.079,25.406 20.972,27.318 C25.867,29.230 25.867,28.593 26.749,28.513 C27.631,28.433 29.596,27.358 29.999,26.243 C30.399,25.127 30.399,24.170 30.279,23.971 Z" class="cls-1"/>
</svg>
