<svg xmlns="http://www.w3.org/2000/svg" xmlns:xlink="http://www.w3.org/1999/xlink" preserveAspectRatio="xMidYMid" width="37" height="35" viewBox="0 0 37 35">
  <defs>
    <style>
      .cls-1 {
        fill: #000;
        filter: url(#color-overlay-1);
        fill-rule: evenodd;
      }
    </style>

    <filter id="color-overlay-1" filterUnits="userSpaceOnUse">
      <feFlood flood-color="#fff"/>
      <feComposite operator="in" in2="SourceGraphic"/>
      <feBlend in2="SourceGraphic" result="solidFill"/>
    </filter>
  </defs>
  <path d="M23.883,24.546 C23.968,24.223 23.967,20.701 24.963,20.305 L28.057,19.073 L28.781,18.464 C28.972,18.303 29.254,18.315 29.432,18.490 L30.442,19.491 L31.449,18.490 C31.626,18.315 31.909,18.303 32.100,18.464 L32.825,19.073 L35.918,20.305 C36.914,20.700 36.914,24.223 37.000,24.546 L23.883,24.546 ZM30.442,18.225 C28.541,18.254 27.374,16.592 27.345,13.852 C27.325,11.851 28.435,10.813 30.442,10.813 C32.492,10.813 33.538,11.851 33.538,13.852 C33.538,18.350 30.442,18.225 30.442,18.225 ZM20.698,15.475 L23.241,15.475 L26.877,18.118 L25.234,18.773 L20.698,15.475 ZM13.022,9.491 L16.115,8.259 L16.840,7.649 C17.031,7.488 17.313,7.500 17.490,7.676 L18.501,8.676 L19.508,7.676 C19.685,7.500 19.968,7.488 20.159,7.649 L20.883,8.259 L23.976,9.491 C24.973,9.886 24.973,13.409 25.059,13.732 L11.941,13.732 C12.027,13.408 12.026,9.887 13.022,9.491 ZM18.501,7.411 C16.599,7.440 15.433,5.777 15.404,3.037 C15.383,1.037 16.494,-0.001 18.501,-0.001 C20.551,-0.001 21.597,1.037 21.597,3.037 C21.597,7.536 18.501,7.411 18.501,7.411 ZM16.302,15.475 L11.766,18.773 L10.122,18.119 L13.759,15.475 L16.302,15.475 ZM6.560,18.225 C4.658,18.254 3.492,16.592 3.463,13.852 C3.442,11.851 4.553,10.813 6.560,10.813 C8.609,10.813 9.655,11.851 9.655,13.852 C9.655,18.350 6.560,18.225 6.560,18.225 ZM4.898,18.464 C5.089,18.303 5.372,18.315 5.549,18.490 L6.559,19.491 L7.566,18.490 C7.744,18.315 8.026,18.303 8.218,18.464 L8.942,19.073 L12.035,20.305 C13.031,20.700 13.032,24.223 13.117,24.546 L-0.000,24.546 C0.086,24.223 0.085,20.701 1.081,20.305 L4.174,19.073 L4.898,18.464 ZM15.198,28.457 L13.555,29.112 L9.143,25.904 L11.686,25.904 L15.198,28.457 ZM18.501,28.678 C16.599,28.706 15.433,27.045 15.404,24.305 C15.383,22.303 16.494,21.265 18.501,21.265 C20.551,21.265 21.597,22.303 21.597,24.305 C21.597,28.803 18.501,28.678 18.501,28.678 ZM21.802,28.457 L25.314,25.904 L27.857,25.904 L23.445,29.112 L21.802,28.457 ZM13.022,30.758 L16.115,29.526 L16.840,28.916 C17.031,28.756 17.313,28.767 17.490,28.942 L18.501,29.943 L19.508,28.943 C19.685,28.767 19.968,28.755 20.159,28.916 L20.883,29.525 L23.976,30.757 C24.973,31.152 24.973,34.676 25.059,34.998 L11.941,34.998 C12.027,34.675 12.026,31.153 13.022,30.758 Z" class="cls-1"/>
</svg>
