<svg xmlns="http://www.w3.org/2000/svg" xmlns:xlink="http://www.w3.org/1999/xlink" preserveAspectRatio="xMidYMid" width="32.68" height="32.68" viewBox="0 0 32.68 32.68">
  <defs>
    <style>
      .cls-1 {
        fill: #000;
        filter: url(#color-overlay-1);
        fill-rule: evenodd;
      }
    </style>

    <filter id="color-overlay-1" filterUnits="userSpaceOnUse">
      <feFlood flood-color="#fff"/>
      <feComposite operator="in" in2="SourceGraphic"/>
      <feBlend in2="SourceGraphic" result="solidFill"/>
    </filter>
  </defs>
  <path d="M28.197,16.509 L26.531,16.509 C26.531,11.073 22.109,6.652 16.674,6.652 L16.673,4.987 C23.027,4.985 28.197,10.154 28.197,16.509 ZM16.673,7.861 L16.672,9.526 C20.524,9.526 23.656,12.659 23.654,16.508 L25.320,16.507 C25.320,11.740 21.442,7.861 16.673,7.861 ZM16.340,0.006 C7.333,0.006 0.007,7.332 0.007,16.340 C0.007,25.345 7.333,32.672 16.340,32.672 C16.897,32.672 17.347,32.221 17.347,31.666 C17.347,31.108 16.897,30.657 16.340,30.657 C8.444,30.657 2.022,24.234 2.022,16.340 C2.022,8.444 8.444,2.021 16.340,2.021 C24.236,2.021 30.658,8.444 30.658,16.340 C30.658,19.639 28.902,22.909 26.389,24.294 C25.477,24.796 24.486,25.044 23.430,25.054 C24.065,24.678 24.613,24.168 25.022,23.524 C25.102,23.403 25.206,23.298 25.259,23.166 C25.587,22.377 25.615,21.482 25.815,20.647 C26.057,19.584 21.156,17.505 20.731,18.834 C20.576,19.325 20.340,20.882 20.031,21.292 C19.755,21.657 19.078,21.483 18.654,21.124 C17.537,20.172 16.289,18.772 15.195,17.667 L15.197,17.666 C15.169,17.637 15.135,17.604 15.105,17.573 C15.074,17.545 15.043,17.511 15.012,17.481 L15.012,17.483 C13.906,16.389 12.506,15.144 11.555,14.024 C11.195,13.601 11.021,12.922 11.387,12.648 C11.797,12.337 13.353,12.105 13.845,11.949 C15.171,11.525 13.095,6.621 12.029,6.864 C11.197,7.060 10.302,7.092 9.513,7.418 C9.379,7.474 9.275,7.578 9.154,7.657 C6.355,9.431 5.994,13.740 8.726,16.948 C9.767,18.177 10.853,19.364 11.971,20.525 L11.965,20.528 C11.996,20.560 12.028,20.589 12.060,20.618 C12.090,20.649 12.119,20.680 12.148,20.714 L12.154,20.708 C13.314,21.825 14.689,23.473 16.923,24.963 C21.626,28.104 25.236,27.227 27.361,26.061 C31.031,24.040 32.673,19.722 32.673,16.341 C32.673,7.332 25.346,0.006 16.340,0.006 Z" class="cls-1"/>
</svg>
