<svg xmlns="http://www.w3.org/2000/svg" xmlns:xlink="http://www.w3.org/1999/xlink" preserveAspectRatio="xMidYMid" width="40.531" height="24.72" viewBox="0 0 40.531 24.72">
  <defs>
    <style>
      .cls-1 {
        fill: #000;
        filter: url(#color-overlay-1);
        fill-rule: evenodd;
      }
    </style>

    <filter id="color-overlay-1" filterUnits="userSpaceOnUse">
      <feFlood flood-color="#fff"/>
      <feComposite operator="in" in2="SourceGraphic"/>
      <feBlend in2="SourceGraphic" result="solidFill"/>
    </filter>
  </defs>
  <path d="M39.370,21.408 C38.936,21.521 38.479,21.557 38.033,21.599 C37.488,21.650 36.936,21.658 36.389,21.654 C35.136,21.646 33.749,21.651 32.602,21.141 C32.461,21.078 32.359,21.017 32.285,20.955 C32.287,20.785 32.287,20.612 32.287,20.438 C32.291,20.433 32.295,20.428 32.299,20.424 L32.287,20.424 C32.287,19.710 32.287,18.997 32.289,18.283 C33.318,18.927 35.607,18.838 36.389,18.847 C37.168,18.856 39.463,18.929 40.493,18.279 C40.493,19.144 40.493,20.012 40.493,20.878 C40.187,21.167 39.478,21.381 39.370,21.408 ZM32.291,14.719 C33.215,15.605 35.448,15.641 36.306,15.657 L36.383,15.658 C36.437,15.659 36.503,15.660 36.576,15.660 C37.116,15.660 38.157,15.623 39.080,15.390 C39.723,15.228 40.190,14.995 40.492,14.700 C40.492,15.693 40.492,16.688 40.492,17.686 C40.186,17.975 39.477,18.188 39.368,18.216 C38.935,18.326 38.479,18.363 38.033,18.406 C37.487,18.457 36.936,18.465 36.389,18.461 C35.135,18.453 33.748,18.457 32.601,17.946 C32.463,17.886 32.361,17.826 32.289,17.764 C32.289,17.589 32.289,17.414 32.289,17.239 C32.291,17.237 32.295,17.233 32.297,17.229 L32.289,17.229 C32.289,16.391 32.291,15.556 32.291,14.719 ZM36.391,15.188 C35.577,15.175 32.289,15.168 32.289,13.773 C32.289,12.378 35.577,12.370 36.391,12.357 C37.205,12.369 40.493,12.378 40.493,13.773 C40.493,15.150 37.203,15.201 36.391,15.188 ZM34.301,8.044 C28.819,8.044 24.373,12.500 24.375,17.994 C24.375,20.599 25.381,22.960 27.013,24.734 L7.230,24.734 L7.230,24.660 C3.348,24.119 -0.241,20.988 -0.011,16.736 C0.212,12.576 3.457,8.497 7.966,8.740 C8.237,8.755 8.503,8.781 8.764,8.819 C8.687,8.358 8.656,7.882 8.679,7.387 C8.886,3.537 11.888,-0.238 16.059,-0.013 C18.523,0.121 20.562,1.216 21.872,2.946 C23.184,1.110 25.229,-0.144 27.681,-0.013 C31.860,0.213 34.838,3.195 35.063,7.387 C35.051,7.620 35.025,7.850 34.994,8.079 C34.763,8.064 34.533,8.044 34.301,8.044 ZM32.283,21.479 C33.312,22.125 35.605,22.035 36.387,22.044 C37.167,22.054 39.461,22.125 40.492,21.475 C40.492,21.604 40.492,21.732 40.492,21.861 C40.492,22.456 40.736,23.462 40.076,23.797 C38.655,24.526 36.814,24.480 35.255,24.364 C34.480,24.304 32.887,24.334 32.402,23.538 C32.135,23.099 32.283,22.366 32.283,21.884 C32.283,21.749 32.283,21.614 32.283,21.479 Z" class="cls-1"/>
</svg>
