<svg xmlns="http://www.w3.org/2000/svg" xmlns:xlink="http://www.w3.org/1999/xlink" preserveAspectRatio="xMidYMid" width="24" height="41" viewBox="0 0 24 41">
  <defs>
    <style>
      .cls-1 {
        fill: #000;
        filter: url(#color-overlay-1);
        fill-rule: evenodd;
      }
    </style>

    <filter id="color-overlay-1" filterUnits="userSpaceOnUse">
      <feFlood flood-color="#fff"/>
      <feComposite operator="in" in2="SourceGraphic"/>
      <feBlend in2="SourceGraphic" result="solidFill"/>
    </filter>
  </defs>
  <path d="M20.516,25.744 L3.737,25.744 L3.737,28.555 L20.516,28.555 L20.516,25.744 ZM19.373,27.542 L17.076,27.542 L17.076,26.757 L19.373,26.757 L19.373,27.542 ZM11.540,4.825 C11.540,4.323 11.954,3.916 12.463,3.916 C12.971,3.916 13.385,4.323 13.385,4.825 C13.385,5.327 12.971,5.735 12.463,5.735 C11.954,5.735 11.540,5.327 11.540,4.825 ZM17.527,4.825 C17.527,4.323 17.941,3.916 18.450,3.916 C18.959,3.916 19.373,4.323 19.373,4.825 C19.373,5.327 18.959,5.735 18.450,5.735 C17.941,5.735 17.527,5.327 17.527,4.825 ZM20.516,18.354 L3.737,18.354 L3.737,21.165 L20.516,21.165 L20.516,18.354 ZM19.373,20.152 L17.076,20.152 L17.076,19.367 L19.373,19.367 L19.373,20.152 ZM0.004,0.001 L0.004,33.197 L23.998,33.197 L23.998,0.001 L0.004,0.001 ZM18.450,2.427 C19.791,2.427 20.883,3.503 20.883,4.825 C20.883,6.147 19.791,7.223 18.450,7.223 C17.108,7.223 16.017,6.147 16.017,4.825 C16.017,3.503 17.108,2.427 18.450,2.427 ZM12.463,2.427 C13.804,2.427 14.895,3.503 14.895,4.825 C14.895,6.147 13.804,7.223 12.463,7.223 C11.121,7.223 10.030,6.147 10.030,4.825 C10.030,3.503 11.121,2.427 12.463,2.427 ZM22.027,30.044 L2.227,30.044 L2.227,24.255 L22.027,24.255 L22.027,30.044 ZM22.027,22.654 L2.227,22.654 L2.227,16.866 L22.027,16.866 L22.027,22.654 ZM22.027,15.161 L2.227,15.161 L2.227,9.373 L22.027,9.373 L22.027,15.161 ZM20.516,10.861 L3.737,10.861 L3.737,13.673 L20.516,13.673 L20.516,10.861 ZM19.373,12.556 L17.076,12.556 L17.076,11.770 L19.373,11.770 L19.373,12.556 ZM19.373,38.640 L23.620,38.640 L23.620,39.632 L19.373,39.632 L19.373,40.997 L5.541,40.997 L5.541,39.632 L1.724,39.632 L1.724,38.640 L5.541,38.640 L5.541,37.524 L10.695,37.524 L10.695,34.181 L14.219,34.181 L14.219,37.524 L19.373,37.524 L19.373,38.640 Z" class="cls-1"/>
</svg>
