<svg xmlns="http://www.w3.org/2000/svg" xmlns:xlink="http://www.w3.org/1999/xlink" preserveAspectRatio="xMidYMid" width="15" height="15" viewBox="0 0 15 15">
  <defs>
    <style>
      .cls-1 {
        fill: #000;
        filter: url(#color-overlay-1);
        fill-rule: evenodd;
      }
    </style>

    <filter id="color-overlay-1" filterUnits="userSpaceOnUse">
      <feFlood flood-color="#fff"/>
      <feComposite operator="in" in2="SourceGraphic"/>
      <feBlend in2="SourceGraphic" result="solidFill"/>
    </filter>
  </defs>
  <path d="M14.921,7.981 L12.982,7.981 L12.982,9.871 C12.982,9.914 12.946,9.949 12.902,9.949 L12.068,9.949 C12.024,9.949 11.988,9.914 11.988,9.871 L11.988,7.981 L10.059,7.981 C10.015,7.981 9.979,7.946 9.979,7.903 L9.979,7.082 C9.979,7.039 10.015,7.005 10.059,7.005 L11.988,7.005 L11.988,5.126 C11.988,5.083 12.024,5.048 12.068,5.048 L12.902,5.048 C12.946,5.048 12.982,5.083 12.982,5.126 L12.982,7.005 L14.921,7.005 C14.965,7.005 15.000,7.039 15.000,7.082 L15.000,7.903 C15.000,7.946 14.964,7.981 14.921,7.981 ZM8.754,0.785 C8.741,0.793 8.727,0.797 8.712,0.797 L7.490,0.797 C7.953,1.169 8.915,1.941 8.915,3.438 C8.915,4.926 8.016,5.614 7.224,6.221 L7.198,6.246 C6.949,6.487 6.666,6.760 6.666,7.175 C6.666,7.595 6.949,7.823 7.175,8.005 L7.909,8.560 C8.779,9.273 9.599,9.943 9.598,11.302 C9.598,13.139 7.784,14.998 4.316,14.998 C1.334,14.998 -0.000,13.593 -0.000,12.201 C-0.000,11.851 0.111,10.644 1.546,9.815 C2.762,9.089 4.425,8.978 5.319,8.918 L5.381,8.913 L5.346,8.870 C5.068,8.524 4.779,8.166 4.779,7.585 C4.779,7.286 4.862,7.095 4.949,6.892 L4.979,6.822 C4.775,6.840 4.545,6.861 4.337,6.861 C2.172,6.861 1.004,5.278 1.004,3.789 C1.004,2.822 1.484,1.842 2.287,1.169 C3.309,0.348 4.444,-0.001 6.084,-0.001 L9.763,-0.001 C9.799,-0.001 9.830,0.022 9.840,0.055 C9.850,0.088 9.836,0.124 9.806,0.142 L8.754,0.785 ZM3.492,9.777 C2.348,10.180 1.767,10.858 1.767,11.791 C1.767,13.219 3.187,14.179 5.301,14.179 C7.122,14.179 8.253,13.369 8.253,12.066 C8.253,11.043 7.542,10.505 6.063,9.482 C5.903,9.462 5.803,9.462 5.603,9.462 C5.591,9.462 4.408,9.477 3.492,9.777 ZM4.619,0.738 C4.087,0.738 3.535,0.991 3.212,1.383 C2.915,1.741 2.771,2.215 2.771,2.832 C2.771,4.045 3.507,6.313 5.281,6.313 C5.760,6.313 6.309,6.093 6.646,5.766 C7.148,5.275 7.148,4.569 7.148,4.337 C7.148,2.867 6.247,0.738 4.619,0.738 Z" class="cls-1"/>
</svg>
