<svg xmlns="http://www.w3.org/2000/svg" xmlns:xlink="http://www.w3.org/1999/xlink" preserveAspectRatio="xMidYMid" width="15" height="14" viewBox="0 0 15 14">
  <defs>
    <style>
      .cls-1 {
        fill: #000;
        filter: url(#color-overlay-1);
        fill-rule: evenodd;
      }
    </style>

    <filter id="color-overlay-1" filterUnits="userSpaceOnUse">
      <feFlood flood-color="#fff"/>
      <feComposite operator="in" in2="SourceGraphic"/>
      <feBlend in2="SourceGraphic" result="solidFill"/>
    </filter>
  </defs>
  <path d="M15.000,8.582 L15.000,13.999 L11.785,13.999 L11.785,8.945 C11.785,7.675 11.320,6.809 10.156,6.809 C9.268,6.809 8.739,7.393 8.507,7.958 C8.422,8.160 8.400,8.441 8.400,8.723 L8.400,13.999 L5.184,13.999 C5.184,13.999 5.227,5.439 5.184,4.552 L8.400,4.552 L8.400,5.891 C8.393,5.901 8.385,5.912 8.379,5.922 L8.400,5.922 L8.400,5.891 C8.827,5.249 9.590,4.330 11.298,4.330 C13.414,4.330 15.000,5.681 15.000,8.582 ZM1.820,-0.001 C0.720,-0.001 -0.000,0.704 -0.000,1.630 C-0.000,2.537 0.699,3.264 1.777,3.264 L1.799,3.264 C2.920,3.264 3.618,2.538 3.618,1.630 C3.596,0.704 2.920,-0.001 1.820,-0.001 ZM0.191,13.999 L3.406,13.999 L3.406,4.552 L0.191,4.552 L0.191,13.999 Z" class="cls-1"/>
</svg>
