<svg xmlns="http://www.w3.org/2000/svg" xmlns:xlink="http://www.w3.org/1999/xlink" preserveAspectRatio="xMidYMid" width="33" height="31" viewBox="0 0 33 31">
  <defs>
    <style>
      .cls-1 {
        fill: #000;
        filter: url(#color-overlay-1);
        fill-rule: evenodd;
      }
    </style>

    <filter id="color-overlay-1" filterUnits="userSpaceOnUse">
      <feFlood flood-color="#fff"/>
      <feComposite operator="in" in2="SourceGraphic"/>
      <feBlend in2="SourceGraphic" result="solidFill"/>
    </filter>
  </defs>
  <path d="M18.295,-0.001 C13.325,-0.001 8.925,2.489 6.262,6.289 C6.813,6.651 7.351,7.145 7.870,7.781 C9.857,4.800 13.069,2.708 16.786,2.259 L18.295,4.822 L19.805,2.259 C25.518,2.949 30.059,7.507 30.748,13.240 L28.193,14.756 L30.748,16.271 C30.288,20.104 28.100,23.405 24.997,25.383 C25.194,25.835 25.306,26.297 25.325,26.774 C25.340,27.123 25.304,27.452 25.232,27.764 C29.852,25.273 33.000,20.377 33.000,14.757 C33.000,6.619 26.404,-0.001 18.295,-0.001 ZM22.048,24.303 C18.658,21.569 17.710,22.913 16.172,24.456 C15.098,25.534 12.381,23.283 10.035,20.927 C7.689,18.573 5.446,15.846 6.520,14.768 C8.058,13.225 9.396,12.273 6.672,8.872 C3.947,5.470 2.132,8.082 0.642,9.577 C-1.078,11.303 0.551,17.734 6.884,24.090 C13.218,30.447 19.626,32.081 21.345,30.356 C22.834,28.860 25.438,27.038 22.048,24.303 ZM11.724,17.066 C11.724,14.041 15.252,13.503 15.252,12.323 C15.252,11.751 14.795,11.510 14.373,11.510 C13.596,11.510 13.163,12.380 13.163,12.380 L11.679,11.384 C11.679,11.384 12.432,9.620 14.555,9.620 C15.891,9.620 17.340,10.387 17.340,12.129 C17.340,14.683 14.053,15.176 13.996,16.229 L17.466,16.229 L17.466,17.947 L11.816,17.947 C11.759,17.627 11.724,17.341 11.724,17.066 ZM18.301,14.752 L21.451,9.756 L23.894,9.756 L23.894,14.305 L24.864,14.305 L24.864,15.966 L23.894,15.966 L23.894,17.947 L21.919,17.947 L21.919,15.966 L18.301,15.966 L18.301,14.752 L18.301,14.752 ZM21.919,14.305 L21.919,12.472 C21.919,12.024 21.988,11.555 21.988,11.555 L21.965,11.555 C21.965,11.555 21.794,12.060 21.565,12.403 L20.333,14.282 L20.333,14.305 L21.919,14.305 L21.919,14.305 Z" class="cls-1"/>
</svg>
