<svg xmlns="http://www.w3.org/2000/svg" xmlns:xlink="http://www.w3.org/1999/xlink" preserveAspectRatio="xMidYMid" width="36" height="38" viewBox="0 0 36 38">
  <defs>
    <style>
      .cls-1 {
        fill: #000;
        filter: url(#color-overlay-1);
        fill-rule: evenodd;
      }
    </style>

    <filter id="color-overlay-1" filterUnits="userSpaceOnUse">
      <feFlood flood-color="#00e0ff"/>
      <feComposite operator="in" in2="SourceGraphic"/>
      <feBlend in2="SourceGraphic" result="solidFill"/>
    </filter>
  </defs>
  <path d="M33.812,35.263 L32.320,35.263 L32.320,37.382 C32.320,37.722 32.046,37.999 31.709,37.999 L28.083,37.999 C27.745,37.999 27.471,37.722 27.471,37.382 L27.471,35.263 L9.079,35.263 L9.079,37.382 C9.079,37.722 8.805,37.999 8.468,37.999 L4.841,37.999 C4.504,37.999 4.230,37.722 4.230,37.382 L4.217,27.496 L2.445,27.496 L2.445,35.262 L2.188,35.262 C0.980,35.262 -0.000,34.274 -0.000,33.055 L-0.000,2.206 C-0.000,0.987 0.980,-0.002 2.188,-0.002 L2.445,-0.002 L2.445,7.765 L4.217,7.765 L4.217,-0.002 L33.812,-0.002 C35.020,-0.002 36.000,0.987 36.000,2.206 L36.000,33.055 C36.000,34.274 35.020,35.263 33.812,35.263 ZM4.217,10.232 L2.445,10.232 L2.445,25.029 L4.217,25.029 L4.217,10.232 ZM20.332,8.444 C15.310,8.444 11.225,12.565 11.225,17.631 C11.225,22.696 15.310,26.817 20.332,26.817 C25.354,26.817 29.439,22.696 29.439,17.631 C29.439,12.565 25.354,8.444 20.332,8.444 ZM25.508,20.218 L25.141,20.859 C25.101,20.930 25.090,21.014 25.111,21.092 C25.132,21.171 25.183,21.239 25.253,21.279 L26.704,22.125 C26.180,22.880 25.535,23.529 24.787,24.058 L23.950,22.594 C23.909,22.524 23.842,22.473 23.764,22.451 C23.686,22.430 23.602,22.441 23.532,22.482 L22.897,22.852 C22.751,22.936 22.701,23.125 22.785,23.273 L23.624,24.739 C22.800,25.129 21.920,25.366 21.005,25.447 L21.005,23.755 C21.005,23.584 20.868,23.446 20.699,23.446 L19.966,23.446 C19.797,23.446 19.660,23.584 19.660,23.755 L19.660,25.447 C18.745,25.366 17.864,25.129 17.040,24.739 L17.880,23.273 C17.920,23.202 17.931,23.118 17.910,23.039 C17.889,22.960 17.838,22.892 17.768,22.852 L17.132,22.482 C16.986,22.396 16.799,22.447 16.715,22.594 L15.877,24.058 C15.129,23.530 14.485,22.880 13.961,22.125 L15.411,21.279 C15.482,21.239 15.533,21.172 15.554,21.092 C15.575,21.014 15.564,20.930 15.523,20.859 L15.157,20.218 C15.072,20.071 14.885,20.020 14.739,20.105 L13.285,20.952 C12.899,20.121 12.664,19.232 12.585,18.309 L14.262,18.309 C14.431,18.309 14.567,18.171 14.567,18.001 L14.567,17.261 C14.567,17.090 14.431,16.953 14.262,16.953 L12.585,16.953 C12.664,16.029 12.899,15.141 13.285,14.309 L14.739,15.157 C14.809,15.198 14.893,15.208 14.971,15.187 C15.049,15.166 15.116,15.114 15.157,15.043 L15.523,14.403 C15.608,14.255 15.557,14.067 15.411,13.982 L13.960,13.137 C14.485,12.382 15.129,11.732 15.877,11.203 L16.715,12.666 C16.799,12.814 16.986,12.865 17.132,12.780 L17.767,12.410 C17.838,12.368 17.889,12.301 17.910,12.223 C17.931,12.143 17.920,12.059 17.879,11.989 L17.040,10.522 C17.864,10.132 18.745,9.895 19.660,9.815 L19.660,11.507 C19.660,11.677 19.797,11.816 19.965,11.816 L20.699,11.816 C20.868,11.816 21.004,11.677 21.004,11.507 L21.004,9.815 C21.920,9.895 22.800,10.132 23.624,10.522 L22.785,11.989 C22.701,12.135 22.751,12.324 22.897,12.410 L23.532,12.780 C23.602,12.821 23.686,12.831 23.764,12.810 C23.842,12.789 23.909,12.737 23.949,12.666 L24.787,11.203 C25.535,11.732 26.179,12.382 26.704,13.137 L25.253,13.982 C25.107,14.067 25.057,14.255 25.141,14.403 L25.508,15.043 C25.548,15.114 25.615,15.166 25.693,15.187 C25.771,15.208 25.855,15.198 25.925,15.157 L27.379,14.309 C27.765,15.141 28.001,16.029 28.080,16.953 L26.403,16.953 C26.234,16.953 26.097,17.090 26.097,17.261 L26.097,18.001 C26.097,18.171 26.234,18.309 26.403,18.309 L28.080,18.309 C28.001,19.232 27.765,20.121 27.379,20.952 L25.925,20.105 C25.779,20.020 25.592,20.071 25.508,20.218 ZM20.332,14.560 C18.654,14.560 17.288,15.937 17.288,17.631 C17.288,19.323 18.654,20.702 20.332,20.702 C22.011,20.702 23.376,19.323 23.376,17.631 C23.376,15.938 22.011,14.560 20.332,14.560 ZM20.332,19.345 C19.395,19.345 18.633,18.576 18.633,17.631 C18.633,16.685 19.395,15.916 20.332,15.916 C21.269,15.916 22.032,16.685 22.032,17.631 C22.032,18.576 21.269,19.345 20.332,19.345 Z" class="cls-1"/>
</svg>
