<svg xmlns="http://www.w3.org/2000/svg" xmlns:xlink="http://www.w3.org/1999/xlink" preserveAspectRatio="xMidYMid" width="29" height="30" viewBox="0 0 29 30">
  <defs>
    <style>
      .cls-1 {
        fill: #000;
        filter: url(#color-overlay-1);
        fill-rule: evenodd;
      }
    </style>

    <filter id="color-overlay-1" filterUnits="userSpaceOnUse">
      <feFlood flood-color="#fff"/>
      <feComposite operator="in" in2="SourceGraphic"/>
      <feBlend in2="SourceGraphic" result="solidFill"/>
    </filter>
  </defs>
  <path d="M12.223,15.805 C12.223,16.635 11.556,17.308 10.734,17.308 C9.911,17.308 9.245,16.635 9.245,15.805 C9.245,14.975 9.911,14.302 10.734,14.302 C11.556,14.302 12.223,14.975 12.223,15.805 ZM18.266,14.302 C17.444,14.302 16.777,14.975 16.777,15.805 C16.777,16.635 17.444,17.308 18.266,17.308 C19.089,17.308 19.755,16.635 19.755,15.805 C19.755,14.975 19.089,14.302 18.266,14.302 ZM24.627,20.420 L24.627,20.248 C24.456,20.749 24.251,21.224 24.031,21.685 C24.072,21.968 24.147,22.363 24.275,22.814 C24.886,23.770 26.613,24.987 27.797,25.300 C27.159,25.574 26.390,25.687 25.642,25.571 C26.327,26.441 27.293,27.232 28.655,27.702 C25.471,30.599 20.224,30.663 16.556,28.413 C15.845,28.624 15.151,28.734 14.500,28.734 C13.849,28.734 13.154,28.624 12.444,28.413 C8.776,30.663 3.529,30.599 0.345,27.702 C1.734,27.222 2.709,26.409 3.396,25.518 C2.788,25.542 2.185,25.430 1.668,25.208 C2.536,24.979 3.694,24.264 4.493,23.522 C4.773,22.775 4.908,22.108 4.969,21.685 C4.749,21.224 4.544,20.749 4.373,20.248 L4.373,20.420 L2.572,20.420 C1.152,20.420 -0.000,19.258 -0.000,17.823 L-0.000,14.967 C-0.000,13.980 0.545,13.122 1.349,12.683 C1.375,8.628 2.546,5.461 4.834,3.271 C7.103,1.100 10.355,-0.002 14.500,-0.002 C18.645,-0.002 21.897,1.100 24.166,3.272 C26.453,5.461 27.624,8.628 27.651,12.683 C28.454,13.122 29.000,13.980 29.000,14.967 L29.000,17.823 C29.000,19.258 27.848,20.420 26.428,20.420 L24.627,20.420 ZM23.555,15.815 C23.555,15.146 23.522,14.518 23.471,13.910 C22.311,12.839 20.187,12.030 17.510,11.746 C17.935,12.130 18.300,12.642 18.495,13.374 C16.938,12.225 13.675,11.870 12.591,10.639 L12.592,10.639 C10.867,9.486 10.415,7.835 10.400,8.519 C10.330,11.795 8.029,14.350 5.474,14.710 C5.458,15.071 5.445,15.434 5.445,15.815 C5.445,17.200 5.669,18.462 6.050,19.600 C7.485,21.347 9.855,21.840 11.953,21.971 C12.343,21.345 13.217,20.909 14.234,20.909 C15.614,20.909 16.732,21.711 16.732,22.699 C16.732,23.687 15.614,24.489 14.234,24.489 C13.173,24.489 12.269,24.014 11.907,23.345 C10.440,23.259 8.828,23.007 7.392,22.322 C9.412,25.328 12.544,26.917 14.500,26.917 C17.573,26.917 23.555,22.999 23.555,15.815 ZM25.113,12.371 L26.103,12.371 C25.939,5.295 21.937,1.556 14.500,1.556 C7.063,1.556 3.061,5.295 2.897,12.371 L3.887,12.371 C4.249,9.986 5.014,8.025 6.175,6.516 C8.026,4.113 10.826,2.895 14.500,2.895 C18.173,2.895 20.974,4.113 22.825,6.516 C23.986,8.025 24.751,9.986 25.113,12.371 Z" class="cls-1"/>
</svg>
