<?xml version="1.0" encoding="utf-8"?>
<svg xmlns="http://www.w3.org/2000/svg"
	xmlns:xlink="http://www.w3.org/1999/xlink"
	width="42px" height="41px" viewBox="0 0 42 41">
<filter filterUnits="objectBoundingBox" x="0.00" y="0.00" width="100.00" height="100.00" id="filter0">
<feFlood flood-color="rgb(255,255,255)" result="coFloodOut1"/>
<feComposite in="coFloodOut1" in2="SourceAlpha" operator="in" result="coOverlay1"/>
<feBlend in="coOverlay1" in2="SourceGraphic" mode="normal" result="colorOverlay1"/>
</filter>
<path fillRule="evenodd" d="M 13.5 35.16C 13.5 35.16 15.95 40.99 14.62 40.99 14.62 40.99 0.39 40.99 0.39 40.99-0.93 40.99 1.51 35.16 1.51 35.16 1.67 34.78 2.01 34.59 2.34 34.45 2.34 34.45 4.59 33.41 4.59 33.41 4.59 33.41 5.68 32.5 5.68 32.5 5.68 32.5 7.37 34.19 7.37 34.19 7.37 34.19 6.61 39.28 6.61 39.28 6.61 39.3 6.61 39.32 6.62 39.34 6.62 39.34 7.45 40.47 7.45 40.47 7.46 40.49 7.49 40.49 7.5 40.49 7.52 40.49 7.55 40.49 7.56 40.47 7.56 40.47 8.39 39.34 8.39 39.34 8.4 39.32 8.41 39.3 8.4 39.28 8.4 39.28 7.63 34.19 7.63 34.19 7.63 34.19 9.33 32.5 9.33 32.5 9.33 32.5 10.42 33.41 10.42 33.41 10.42 33.41 12.66 34.45 12.66 34.45 13.01 34.59 13.35 34.81 13.5 35.16ZM 7.5 32.47C 9.81 32.47 11.53 30.32 11.56 26.72 11.59 24.22 10.4 22.73 7.5 22.73 4.61 22.73 3.42 24.22 3.44 26.72 3.49 30.33 5.21 32.47 7.5 32.47ZM 40.48 35.16C 40.33 34.81 39.99 34.59 39.65 34.45 39.65 34.45 37.4 33.41 37.4 33.41 37.4 33.41 36.32 32.5 36.32 32.5 36.32 32.5 34.62 34.2 34.62 34.2 34.62 34.2 35.39 39.29 35.39 39.29 35.39 39.31 35.39 39.33 35.38 39.35 35.38 39.35 34.55 40.48 34.55 40.48 34.54 40.49 34.51 40.5 34.49 40.5 34.47 40.5 34.44 40.49 34.43 40.48 34.43 40.48 33.6 39.35 33.6 39.35 33.6 39.33 33.59 39.31 33.6 39.29 33.6 39.29 34.36 34.2 34.36 34.2 34.36 34.2 32.66 32.5 32.66 32.5 32.66 32.5 31.58 33.42 31.58 33.42 31.58 33.42 29.33 34.46 29.33 34.46 28.99 34.6 28.67 34.78 28.5 35.17 28.5 35.17 26.06 41 27.38 41 27.38 41 41.61 41 41.61 41 42.93 40.99 40.48 35.16 40.48 35.16ZM 34.49 32.47C 36.8 32.47 38.51 30.32 38.55 26.72 38.58 24.22 37.38 22.73 34.49 22.73 31.6 22.73 30.4 24.22 30.43 26.72 30.47 30.33 32.19 32.47 34.49 32.47ZM 25.79 27.55C 26.16 28.97 25.91 30.34 25.02 31.82 25.02 31.82 16.98 31.82 16.98 31.82 16.09 30.34 15.84 28.97 16.2 27.55 16.29 27.56 16.38 27.57 16.47 27.57 16.8 27.57 17.12 27.5 17.43 27.37 17.43 27.37 18.82 26.79 18.82 26.79 19.58 26.49 20.11 25.83 20.31 25.07 20.76 25.05 21.22 25.05 21.69 25.07 21.88 25.82 22.42 26.48 23.17 26.79 23.17 26.79 24.56 27.37 24.56 27.37 24.87 27.5 25.2 27.57 25.52 27.57 25.62 27.56 25.7 27.56 25.79 27.55ZM 20.77 29.69C 20.77 29.43 20.56 29.21 20.3 29.21 20.3 29.21 19.97 29.21 19.97 29.21 19.71 29.21 19.5 29.43 19.5 29.69 19.5 29.69 19.5 30.02 19.5 30.02 19.5 30.28 19.71 30.5 19.97 30.5 19.97 30.5 20.3 30.5 20.3 30.5 20.56 30.5 20.77 30.28 20.77 30.02 20.77 30.02 20.77 29.69 20.77 29.69ZM 20.77 28.02C 20.77 27.76 20.56 27.54 20.3 27.54 20.3 27.54 19.97 27.54 19.97 27.54 19.71 27.54 19.5 27.76 19.5 28.02 19.5 28.02 19.5 28.35 19.5 28.35 19.5 28.61 19.71 28.82 19.97 28.82 19.97 28.82 20.3 28.82 20.3 28.82 20.56 28.82 20.77 28.61 20.77 28.35 20.77 28.35 20.77 28.02 20.77 28.02ZM 22.5 29.69C 22.5 29.43 22.29 29.21 22.02 29.21 22.02 29.21 21.7 29.21 21.7 29.21 21.44 29.21 21.22 29.43 21.22 29.69 21.22 29.69 21.22 30.02 21.22 30.02 21.22 30.28 21.44 30.5 21.7 30.5 21.7 30.5 22.02 30.5 22.02 30.5 22.29 30.5 22.5 30.28 22.5 30.02 22.5 30.02 22.5 29.69 22.5 29.69ZM 22.5 28.02C 22.5 27.76 22.29 27.54 22.02 27.54 22.02 27.54 21.7 27.54 21.7 27.54 21.44 27.54 21.22 27.76 21.22 28.02 21.22 28.02 21.22 28.35 21.22 28.35 21.22 28.61 21.44 28.82 21.7 28.82 21.7 28.82 22.02 28.82 22.02 28.82 22.29 28.82 22.5 28.61 22.5 28.35 22.5 28.35 22.5 28.02 22.5 28.02ZM 23.37 26.3C 23.37 26.3 24.76 26.88 24.76 26.88 25.78 27.3 26.93 26.81 27.35 25.8 27.35 25.8 27.41 25.66 27.41 25.66 27.83 24.64 27.34 23.49 26.34 23.07 26.34 23.07 24.36 22.26 20.99 22.26 17.62 22.26 15.64 23.07 15.64 23.07 14.62 23.49 14.15 24.64 14.57 25.66 14.57 25.66 14.62 25.8 14.62 25.8 15.04 26.82 16.2 27.3 17.22 26.88 17.22 26.88 18.62 26.3 18.62 26.3 19.54 25.92 20.03 24.92 19.78 23.98 20.49 23.87 21.48 23.87 22.19 23.98 21.97 24.92 22.44 25.92 23.37 26.3ZM 21.46 19.39C 21.46 19.39 20.53 19.39 20.53 19.39 20.53 19.39 20.53 21.51 20.53 21.51 20.53 21.51 21.46 21.51 21.46 21.51 21.46 21.51 21.46 19.39 21.46 19.39ZM 13.37 33.39C 13.37 33.39 14.04 34.06 14.04 34.06 14.04 34.06 15.85 32.24 15.85 32.24 15.85 32.24 15.18 31.58 15.18 31.58 15.18 31.58 13.37 33.39 13.37 33.39ZM 28.62 33.39C 28.62 33.39 26.81 31.58 26.81 31.58 26.81 31.58 26.15 32.24 26.15 32.24 26.15 32.24 27.96 34.06 27.96 34.06 27.96 34.06 28.62 33.39 28.62 33.39ZM 13.89 18.26C 13.89 18.26 28.12 18.26 28.12 18.26 29.44 18.26 27 12.43 27 12.43 26.85 12.08 26.5 11.86 26.17 11.72 26.17 11.72 23.92 10.68 23.92 10.68 23.92 10.68 22.84 9.77 22.84 9.77 22.84 9.77 21.14 11.46 21.14 11.46 21.14 11.46 21.9 16.55 21.9 16.55 21.9 16.57 21.9 16.59 21.89 16.61 21.89 16.61 21.06 17.74 21.06 17.74 21.05 17.76 21.03 17.77 21.01 17.77 20.99 17.77 20.96 17.76 20.95 17.74 20.95 17.74 20.12 16.61 20.12 16.61 20.11 16.59 20.1 16.57 20.11 16.55 20.11 16.55 20.88 11.46 20.88 11.46 20.88 11.46 19.18 9.77 19.18 9.77 19.18 9.77 18.1 10.68 18.1 10.68 18.1 10.68 15.85 11.72 15.85 11.72 15.51 11.86 15.18 12.05 15.02 12.43 15 12.43 12.55 18.26 13.89 18.26ZM 21 9.74C 23.3 9.74 25.02 7.59 25.06 3.99 25.08 1.49 23.89-0 21-0 18.1-0 16.91 1.49 16.94 3.99 16.98 7.6 18.69 9.74 21 9.74Z" fill="rgb(0,0,0)" filter="url(#filter0)"/></svg>