<?xml version="1.0" encoding="utf-8"?>
<svg xmlns="http://www.w3.org/2000/svg"
	xmlns:xlink="http://www.w3.org/1999/xlink"
	width="46px" height="36px" viewBox="0 0 46 36">
<filter filterUnits="objectBoundingBox" x="0.00" y="0.00" width="100.00" height="100.00" id="filter0">
<feFlood flood-color="rgb(255,255,255)" result="coFloodOut1"/>
<feComposite in="coFloodOut1" in2="SourceAlpha" operator="in" result="coOverlay1"/>
<feBlend in="coOverlay1" in2="SourceGraphic" mode="normal" result="colorOverlay1"/>
</filter>
<path fillRule="evenodd" d="M 37.67 8.39C 37.67 8.39 37.67-0.01 37.67-0.01 37.67-0.01 46-0.01 46-0.01 46-0.01 46 8.39 46 8.39 46 8.39 37.67 8.39 37.67 8.39ZM 30.99 5.97C 30.99 5.97 36.53 5.97 36.53 5.97 36.53 5.97 36.53 11.56 36.53 11.56 36.53 11.56 30.99 11.56 30.99 11.56 30.99 11.56 30.99 5.97 30.99 5.97ZM 31.93 0.56C 31.93 0.56 35.81 0.56 35.81 0.56 35.81 0.56 35.81 4.48 35.81 4.48 35.81 4.48 31.93 4.48 31.93 4.48 31.93 4.48 31.93 0.56 31.93 0.56ZM 26.44 12.56C 26.44 12.56 30.32 12.56 30.32 12.56 30.32 12.56 30.32 16.48 30.32 16.48 30.32 16.48 26.44 16.48 26.44 16.48 26.44 16.48 26.44 12.56 26.44 12.56ZM 24.89 7.64C 24.89 7.64 28.77 7.64 28.77 7.64 28.77 7.64 28.77 11.56 28.77 11.56 28.77 11.56 24.89 11.56 24.89 11.56 24.89 11.56 24.89 7.64 24.89 7.64ZM 20.63 13.9C 20.63 13.9 23.9 13.9 23.9 13.9 23.9 13.9 23.9 17.21 23.9 17.21 23.9 17.21 20.63 17.21 20.63 17.21 20.63 17.21 20.63 13.9 20.63 13.9ZM 21.85 18.44C 21.85 18.44 21.85 21.73 21.85 21.73 21.85 21.73 18.58 21.73 18.58 21.73 18.58 21.73 18.58 18.44 18.58 18.44 18.58 18.44 21.85 18.44 21.85 18.44ZM 27.11 18.04C 27.11 18.04 27.11 21.34 27.11 21.34 27.11 21.34 23.84 21.34 23.84 21.34 23.84 21.34 23.84 18.04 23.84 18.04 23.84 18.04 27.11 18.04 27.11 18.04ZM 33.87 16.93C 33.87 16.93 33.87 20.84 33.87 20.84 33.87 20.84 29.99 20.84 29.99 20.84 29.99 20.84 29.99 16.93 29.99 16.93 29.99 16.93 33.87 16.93 33.87 16.93ZM 35.13 12.71C 35.13 12.71 41.83 12.71 41.83 12.71 41.83 12.71 41.83 19.47 41.83 19.47 41.83 19.47 35.13 19.47 35.13 19.47 35.13 19.47 35.13 12.71 35.13 12.71ZM 6.12 9.57C 6.12 9.57 6.12 26.1 6.12 26.1 6.12 26.86 6.74 27.48 7.49 27.48 7.49 27.48 34.81 27.48 34.81 27.48 35.56 27.48 36.18 26.86 36.18 26.1 36.18 26.1 36.18 21.25 36.18 21.25 36.18 21.25 38.38 21.25 38.38 21.25 38.38 21.25 38.38 27.32 38.38 27.32 38.38 27.32 38.38 27.32 38.38 27.32 38.38 27.32 38.38 28.9 38.38 28.9 38.38 28.9 42.29 33.64 42.29 33.64 42.29 34.95 41.24 36.01 39.95 36.01 39.95 36.01 2.35 36.01 2.35 36.01 1.05 36.01 0 34.95 0 33.64 0 33.64 3.92 28.9 3.92 28.9 3.92 28.9 3.92 27.32 3.92 27.32 3.92 27.32 3.92 17.84 3.92 17.84 3.92 17.84 3.92 8.36 3.92 8.36 3.92 7.49 4.62 6.78 5.48 6.78 5.48 6.78 23.12 6.78 23.12 6.78 23.12 6.78 23.12 8.19 23.12 8.19 23.12 8.19 7.49 8.19 7.49 8.19 6.74 8.19 6.12 8.81 6.12 9.57ZM 18.02 35.22C 18.02 35.22 24.29 35.22 24.29 35.22 24.5 35.22 24.67 35.05 24.67 34.83 24.67 34.6 24.5 34.43 24.28 34.43 24.28 34.43 18.02 34.43 18.02 34.43 17.8 34.43 17.62 34.6 17.62 34.83 17.62 35.05 17.8 35.22 18.02 35.22ZM 27.61 33.64C 27.61 33.64 26.41 32.19 26.41 32.19 26.41 32.19 15.89 32.19 15.89 32.19 15.89 32.19 14.69 33.64 14.69 33.64 14.69 33.64 27.61 33.64 27.61 33.64Z" fill="rgb(0,0,0)" filter="url(#filter0)"/></svg>