<?xml version="1.0" encoding="utf-8"?>
<svg xmlns="http://www.w3.org/2000/svg"
	xmlns:xlink="http://www.w3.org/1999/xlink"
	width="46px" height="48px" viewBox="0 0 46 48">
<filter filterUnits="objectBoundingBox" x="0.00" y="0.00" width="100.00" height="100.00" id="filter0">
<feFlood flood-color="rgb(255,255,255)" result="coFloodOut1"/>
<feComposite in="coFloodOut1" in2="SourceAlpha" operator="in" result="coOverlay1"/>
<feBlend in="coOverlay1" in2="SourceGraphic" mode="normal" result="colorOverlay1"/>
</filter>
<path fillRule="evenodd" d="M 38.03 27.26C 38.03 27.26 38.03 24.23 38.03 24.23 38.03 23.85 37.96 23.49 37.85 23.15 40.28 22.34 42.04 20.02 42.04 17.29 42.04 13.89 39.31 11.12 35.95 11.12 35.75 11.12 35.55 11.13 35.34 11.15 34.51 11.24 33.72 10.78 33.36 10.03 32.33 7.87 30.23 6.53 27.88 6.53 27.46 6.53 27.04 6.57 26.63 6.66 25.99 6.8 25.32 6.6 24.85 6.13 23.47 4.77 21.65 4.01 19.73 4.01 16.37 4.01 13.45 6.33 12.63 9.63 12.39 10.58 11.52 11.22 10.55 11.15 10.39 11.13 10.22 11.12 10.05 11.12 6.69 11.12 3.96 13.89 3.96 17.29 3.96 20.02 5.72 22.34 8.15 23.15 8.04 23.49 7.97 23.85 7.97 24.23 7.97 24.23 7.97 27.26 7.97 27.26 3.42 26.28-0 22.19-0 17.29-0 12.16 3.77 7.9 8.64 7.2 9.03 7.15 9.37 6.9 9.54 6.54 11.38 2.6 15.3 0 19.73 0 22.2 0 24.56 0.81 26.51 2.3 26.73 2.47 27 2.55 27.28 2.53 27.48 2.52 27.68 2.51 27.88 2.51 31.08 2.51 34.09 4.1 35.96 6.66 36.16 6.94 36.47 7.11 36.8 7.14 41.95 7.58 46 11.97 46 17.29 46 22.19 42.58 26.28 38.03 27.26ZM 11.31 14.68C 11.31 14.68 34.69 14.68 34.69 14.68 35.44 14.68 36.05 15.29 36.05 16.05 36.05 16.05 36.05 20.73 36.05 20.73 36.05 21.49 35.44 22.1 34.69 22.1 34.69 22.1 11.31 22.1 11.31 22.1 10.56 22.1 9.95 21.49 9.95 20.73 9.95 20.73 9.95 16.05 9.95 16.05 9.95 15.29 10.56 14.68 11.31 14.68ZM 26.57 20.38C 26.57 20.38 32.48 20.38 32.48 20.38 32.48 20.38 32.48 18.39 32.48 18.39 32.48 18.39 26.57 18.39 26.57 18.39 26.57 18.39 26.57 20.38 26.57 20.38ZM 12.4 17.94C 12.86 17.94 13.23 17.56 13.23 17.09 13.23 16.62 12.86 16.24 12.4 16.24 11.93 16.24 11.56 16.62 11.56 17.09 11.56 17.56 11.93 17.94 12.4 17.94ZM 11.31 22.86C 11.31 22.86 34.69 22.86 34.69 22.86 35.44 22.86 36.05 23.47 36.05 24.23 36.05 24.23 36.05 28.9 36.05 28.9 36.05 29.66 35.44 30.28 34.69 30.28 34.69 30.28 11.31 30.28 11.31 30.28 10.56 30.28 9.95 29.66 9.95 28.9 9.95 28.9 9.95 24.23 9.95 24.23 9.95 23.47 10.56 22.86 11.31 22.86ZM 26.57 28.56C 26.57 28.56 32.48 28.56 32.48 28.56 32.48 28.56 32.48 26.57 32.48 26.57 32.48 26.57 26.57 26.57 26.57 26.57 26.57 26.57 26.57 28.56 26.57 28.56ZM 12.4 26.11C 12.86 26.11 13.23 25.74 13.23 25.27 13.23 24.8 12.86 24.42 12.4 24.42 11.93 24.42 11.56 24.8 11.56 25.27 11.56 25.74 11.93 26.11 12.4 26.11ZM 11.31 31.03C 11.31 31.03 34.69 31.03 34.69 31.03 35.44 31.03 36.05 31.65 36.05 32.41 36.05 32.41 36.05 37.08 36.05 37.08 36.05 37.84 35.44 38.45 34.69 38.45 34.69 38.45 11.31 38.45 11.31 38.45 10.56 38.45 9.95 37.84 9.95 37.08 9.95 37.08 9.95 32.41 9.95 32.41 9.95 31.65 10.56 31.03 11.31 31.03ZM 26.57 36.73C 26.57 36.73 32.48 36.73 32.48 36.73 32.48 36.73 32.48 34.74 32.48 34.74 32.48 34.74 26.57 34.74 26.57 34.74 26.57 34.74 26.57 36.73 26.57 36.73ZM 12.4 34.29C 12.86 34.29 13.23 33.91 13.23 33.44 13.23 32.97 12.86 32.59 12.4 32.59 11.93 32.59 11.56 32.97 11.56 33.44 11.56 33.91 11.93 34.29 12.4 34.29ZM 18.96 42.92C 18.96 42.92 21.45 42.92 21.45 42.92 21.45 42.92 21.45 39.25 21.45 39.25 21.45 39.25 24.55 39.25 24.55 39.25 24.55 39.25 24.55 42.92 24.55 42.92 24.55 42.92 27.04 42.92 27.04 42.92 27.04 42.92 27.04 43.89 27.04 43.89 27.04 43.89 35.76 43.89 35.76 43.89 35.76 43.89 35.76 47.03 35.76 47.03 35.76 47.03 27.04 47.03 27.04 47.03 27.04 47.03 27.04 48 27.04 48 27.04 48 18.96 48 18.96 48 18.96 48 18.96 47.03 18.96 47.03 18.96 47.03 10.24 47.03 10.24 47.03 10.24 47.03 10.24 43.89 10.24 43.89 10.24 43.89 18.96 43.89 18.96 43.89 18.96 43.89 18.96 42.92 18.96 42.92Z" fill="rgb(0,0,0)" filter="url(#filter0)"/></svg>