<svg xmlns="http://www.w3.org/2000/svg" xmlns:xlink="http://www.w3.org/1999/xlink" preserveAspectRatio="xMidYMid" width="44" height="50" viewBox="0 0 44 50">
  <defs>
    <style>
      .cls-1 {
        fill: #000;
        filter: url(#color-overlay-1);
        fill-rule: evenodd;
      }
    </style>

    <filter id="color-overlay-1" filterUnits="userSpaceOnUse">
      <feFlood flood-color="#00e0ff"/>
      <feComposite operator="in" in2="SourceGraphic"/>
      <feBlend in2="SourceGraphic" result="solidFill"/>
    </filter>
  </defs>
  <path d="M19.890,48.190 L19.890,25.255 C18.896,24.591 18.233,23.446 18.233,22.151 C18.233,20.102 19.890,18.443 21.940,18.443 C23.989,18.443 25.647,20.102 25.647,22.151 C25.647,23.658 24.742,24.953 23.477,25.526 L23.477,48.190 C23.477,49.185 22.663,49.999 21.668,49.999 C20.674,49.999 19.890,49.185 19.890,48.190 ZM30.951,29.474 C31.252,29.655 31.553,29.746 31.885,29.746 C32.487,29.746 33.090,29.444 33.422,28.871 C34.778,26.641 35.441,24.079 35.320,21.458 C35.019,14.163 28.841,8.468 21.518,8.738 C18.022,8.890 14.767,10.396 12.356,13.018 C9.945,15.610 8.709,19.016 8.860,22.542 C8.951,24.622 9.493,26.611 10.487,28.419 C10.970,29.293 12.085,29.625 12.959,29.113 C13.833,28.631 14.134,27.515 13.652,26.642 C12.929,25.315 12.537,23.899 12.446,22.362 C12.356,19.800 13.260,17.328 14.978,15.430 C16.696,13.532 19.137,12.476 21.698,12.355 C27.002,12.144 31.523,16.274 31.734,21.608 C31.824,23.507 31.342,25.375 30.348,27.003 C29.836,27.847 30.107,28.962 30.951,29.474 ZM36.255,36.437 C37.008,37.070 38.153,36.979 38.816,36.226 C42.161,32.247 44.000,27.213 44.000,22.000 C44.000,9.854 34.145,-0.001 22.000,-0.001 C9.855,-0.001 -0.000,9.854 -0.000,22.000 C-0.000,27.515 2.049,32.759 5.756,36.828 C6.118,37.220 6.600,37.431 7.082,37.431 C7.504,37.431 7.956,37.280 8.288,36.949 C9.011,36.285 9.071,35.140 8.408,34.387 C5.334,31.012 3.616,26.611 3.616,22.000 C3.616,11.874 11.874,3.615 22.000,3.615 C32.126,3.615 40.384,11.874 40.384,22.000 C40.384,26.341 38.846,30.559 36.044,33.875 C35.381,34.628 35.471,35.773 36.255,36.437 Z" class="cls-1"/>
</svg>
