<svg xmlns="http://www.w3.org/2000/svg" xmlns:xlink="http://www.w3.org/1999/xlink" preserveAspectRatio="xMidYMid" width="65" height="65" viewBox="0 0 65 65">
  <defs>
    <style>
      .cls-1 {
        fill: #000;
        filter: url(#color-overlay-1);
        fill-rule: evenodd;
      }
    </style>

    <filter id="color-overlay-1" filterUnits="userSpaceOnUse">
      <feFlood flood-color="#fff"/>
      <feComposite operator="in" in2="SourceGraphic"/>
      <feBlend in2="SourceGraphic" result="solidFill"/>
    </filter>
  </defs>
  <path d="M64.806,54.542 C64.475,54.992 63.840,55.090 63.389,54.760 L47.547,43.155 L46.521,44.182 L44.880,45.822 C40.975,49.723 35.119,48.801 29.728,45.521 C27.706,44.292 25.748,42.730 23.997,40.980 C22.248,39.230 20.683,37.272 19.453,35.252 C16.167,29.862 15.233,24.011 19.114,20.134 L21.812,17.439 L10.899,2.555 L7.921,5.509 L10.448,8.957 L13.480,13.090 L16.512,17.225 C16.842,17.675 16.745,18.310 16.294,18.641 C15.843,18.971 15.208,18.873 14.877,18.422 L11.847,14.286 L8.815,10.153 L6.467,6.952 L5.972,7.442 L5.974,7.445 L5.932,7.487 C2.063,11.353 1.049,16.480 3.031,22.702 C5.089,29.162 10.325,36.784 18.879,45.396 L19.224,45.743 L19.226,45.741 C19.811,46.325 20.291,46.801 20.666,47.163 C28.972,55.213 36.355,60.143 42.618,62.058 C48.651,63.904 53.630,62.904 57.368,59.168 L57.418,59.119 L57.539,58.998 L58.033,58.489 L54.835,56.148 L50.698,53.118 L46.561,50.087 C46.110,49.757 46.012,49.123 46.343,48.671 C46.673,48.221 47.308,48.124 47.759,48.454 L51.896,51.484 L56.034,54.514 L60.171,57.542 C60.192,57.558 60.203,57.582 60.223,57.599 C60.239,57.613 60.261,57.618 60.277,57.634 C60.306,57.662 60.318,57.700 60.344,57.732 C60.392,57.791 60.436,57.848 60.469,57.915 C60.494,57.967 60.510,58.019 60.526,58.073 C60.547,58.144 60.564,58.212 60.570,58.285 C60.574,58.342 60.568,58.396 60.563,58.453 C60.557,58.525 60.547,58.593 60.525,58.663 C60.507,58.721 60.478,58.773 60.449,58.828 C60.426,58.871 60.418,58.918 60.389,58.958 C60.373,58.980 60.349,58.991 60.331,59.011 C60.317,59.028 60.312,59.049 60.296,59.066 L58.992,60.412 L58.987,60.416 L58.862,60.541 L58.805,60.604 C54.501,64.908 48.837,66.076 42.030,63.995 C35.456,61.984 27.793,56.891 19.252,48.615 C18.663,48.045 18.174,47.563 17.789,47.178 L17.791,47.175 L17.789,47.173 L17.441,46.825 C8.657,37.979 3.257,30.080 1.100,23.313 C-1.132,16.306 0.054,10.487 4.494,6.050 L4.536,6.008 L4.538,6.009 L4.541,6.008 L10.304,0.290 C10.340,0.254 10.378,0.223 10.418,0.193 C10.869,-0.137 11.504,-0.040 11.835,0.410 L23.916,16.882 C24.259,17.281 24.242,17.886 23.865,18.262 L20.552,21.574 C17.465,24.659 18.367,29.576 21.185,34.198 C22.324,36.069 23.785,37.895 25.436,39.545 C27.088,41.196 28.915,42.656 30.785,43.792 C35.409,46.607 40.332,47.495 43.442,44.387 L45.083,42.747 L46.724,41.107 L46.726,41.109 C47.073,40.762 47.632,40.709 48.041,41.008 L64.588,53.126 C65.039,53.456 65.136,54.091 64.806,54.542 ZM58.519,26.780 C57.969,26.885 57.435,26.528 57.329,25.977 C56.883,23.730 56.104,21.572 55.028,19.567 L55.000,19.515 C53.929,17.530 52.563,15.693 50.939,14.070 L50.935,14.066 C49.299,12.432 47.442,11.055 45.436,9.982 C43.436,8.912 41.272,8.130 39.021,7.681 C38.470,7.576 38.113,7.040 38.219,6.493 C38.326,5.942 38.860,5.585 39.409,5.691 C41.852,6.175 44.202,7.028 46.389,8.196 C48.577,9.369 50.594,10.864 52.366,12.633 L52.371,12.637 C54.126,14.394 55.610,16.389 56.779,18.552 L56.811,18.609 C57.986,20.793 58.835,23.144 59.322,25.590 C59.428,26.139 59.070,26.673 58.519,26.780 ZM39.478,11.933 C41.100,12.370 42.654,13.023 44.098,13.858 C45.555,14.702 46.897,15.733 48.085,16.921 C49.273,18.108 50.304,19.448 51.147,20.905 C51.985,22.348 52.637,23.901 53.076,25.522 C53.220,26.064 52.898,26.620 52.356,26.764 C51.814,26.909 51.257,26.586 51.113,26.045 C50.721,24.595 50.139,23.207 49.392,21.919 C48.644,20.629 47.719,19.430 46.648,18.357 C45.574,17.285 44.374,16.360 43.084,15.613 C41.797,14.865 40.408,14.284 38.955,13.894 C38.413,13.751 38.092,13.194 38.236,12.652 C38.379,12.111 38.936,11.789 39.478,11.933 ZM45.413,23.165 C45.879,23.857 46.286,24.602 46.620,25.387 C46.838,25.901 46.599,26.498 46.084,26.715 C45.570,26.933 44.973,26.694 44.755,26.181 C44.475,25.525 44.130,24.892 43.730,24.299 C43.326,23.700 42.864,23.144 42.362,22.640 L42.360,22.641 C41.850,22.132 41.293,21.671 40.700,21.273 C40.103,20.869 39.474,20.524 38.826,20.249 C38.312,20.033 38.070,19.438 38.286,18.924 C38.502,18.410 39.097,18.169 39.612,18.385 C40.404,18.721 41.151,19.127 41.837,19.591 C42.548,20.069 43.207,20.613 43.800,21.205 L43.798,21.208 L43.800,21.210 C44.399,21.809 44.943,22.466 45.413,23.165 Z" class="cls-1"/>
</svg>
