<svg xmlns="http://www.w3.org/2000/svg" xmlns:xlink="http://www.w3.org/1999/xlink" preserveAspectRatio="xMidYMid" width="54" height="58" viewBox="0 0 54 58">
  <defs>
    <style>
      .cls-1 {
        fill: #000;
        filter: url(#color-overlay-1);
        fill-rule: evenodd;
      }
    </style>

    <filter id="color-overlay-1" filterUnits="userSpaceOnUse">
      <feFlood flood-color="#fff"/>
      <feComposite operator="in" in2="SourceGraphic"/>
      <feBlend in2="SourceGraphic" result="solidFill"/>
    </filter>
  </defs>
  <path d="M49.680,57.998 L4.320,57.998 C1.944,57.998 -0.000,56.065 -0.000,53.702 L-0.000,23.628 L6.480,18.043 L6.480,10.739 C6.480,8.376 8.424,6.443 10.800,6.443 L19.656,6.443 L27.000,-0.002 L34.344,6.443 L43.200,6.443 C45.576,6.443 47.520,8.376 47.520,10.739 L47.520,18.043 L54.000,23.628 L54.000,53.702 C54.000,56.065 52.056,57.998 49.680,57.998 ZM48.600,55.851 L33.480,42.961 L20.520,42.961 L5.400,55.851 L48.600,55.851 ZM35.856,36.517 L17.928,36.517 L22.680,40.814 L23.976,40.814 L27.648,40.814 L31.320,40.814 L35.856,36.517 ZM6.480,20.835 L3.240,23.628 L6.480,26.636 L6.480,20.835 ZM2.160,25.776 L2.160,39.740 L2.160,53.702 C2.160,54.347 2.376,54.776 2.808,55.206 L19.440,40.814 L2.160,25.776 ZM27.000,2.791 L22.680,6.443 L31.104,6.443 L27.000,2.791 ZM45.360,10.739 C45.360,9.665 44.280,8.591 43.200,8.591 L10.800,8.591 C9.504,8.591 8.640,9.451 8.640,10.739 L8.640,28.354 L15.552,34.369 L38.448,34.369 L45.360,28.139 L45.360,10.739 ZM47.520,20.835 L47.520,26.421 L50.760,23.628 L47.520,20.835 ZM51.840,39.740 L51.840,25.776 L34.560,40.814 L51.192,55.206 C51.624,54.776 51.840,54.347 51.840,53.702 L51.840,39.740 ZM12.960,27.925 L41.040,27.925 L41.040,30.073 L12.960,30.073 L12.960,27.925 ZM12.960,21.480 L41.040,21.480 L41.040,23.628 L12.960,23.628 L12.960,21.480 ZM12.960,15.036 L41.040,15.036 L41.040,17.184 L12.960,17.184 L12.960,15.036 Z" class="cls-1"/>
</svg>
