<svg xmlns="http://www.w3.org/2000/svg" xmlns:xlink="http://www.w3.org/1999/xlink" preserveAspectRatio="xMidYMid" width="46" height="69" viewBox="0 0 46 69">
  <defs>
    <style>
      .cls-1 {
        fill: #000;
        filter: url(#color-overlay-1);
        fill-rule: evenodd;
      }
    </style>

    <filter id="color-overlay-1" filterUnits="userSpaceOnUse">
      <feFlood flood-color="#fff"/>
      <feComposite operator="in" in2="SourceGraphic"/>
      <feBlend in2="SourceGraphic" result="solidFill"/>
    </filter>
  </defs>
  <path d="M28.727,68.999 L28.727,66.489 L29.759,66.489 L30.755,66.489 C30.755,61.732 30.755,56.975 30.755,52.217 L29.759,51.227 L23.000,44.510 L16.241,51.228 L15.244,52.218 C15.244,56.975 15.244,61.732 15.243,66.489 L16.240,66.489 L17.273,66.489 L17.273,68.999 L-0.000,68.999 L-0.000,66.489 L1.031,66.489 L2.028,66.489 C2.028,55.897 2.028,45.305 2.028,34.711 C4.303,34.285 6.469,34.072 8.635,34.072 C10.802,34.072 12.968,34.285 15.244,34.711 C15.244,36.606 15.244,38.500 15.244,40.394 L16.241,40.394 L29.759,40.394 L30.755,40.394 C30.755,38.500 30.755,36.606 30.755,34.711 C33.030,34.285 35.197,34.072 37.363,34.072 C39.529,34.072 41.696,34.285 43.971,34.711 C43.971,45.305 43.972,55.897 43.971,66.489 L44.967,66.489 L46.000,66.489 L46.000,68.999 L28.727,68.999 ZM5.149,36.644 L4.152,36.644 L4.152,66.489 L5.149,66.489 L5.149,36.644 ZM9.135,36.644 L8.139,36.644 L8.139,66.489 L9.135,66.489 L9.135,36.644 ZM13.120,36.644 L12.124,36.644 L12.124,66.489 L13.120,66.489 L13.120,36.644 ZM16.241,44.384 L15.243,44.384 C15.244,46.516 15.243,48.646 15.243,50.778 L16.240,49.787 L21.677,44.384 L16.241,44.384 ZM30.755,44.384 L29.759,44.384 L24.323,44.384 L29.759,49.786 L30.755,50.777 C30.755,48.645 30.755,46.515 30.755,44.384 ZM33.876,36.644 L32.879,36.644 L32.879,66.489 L33.876,66.489 L33.876,36.644 ZM37.861,36.644 L36.865,36.644 L36.865,66.489 L37.861,66.489 L37.861,36.644 ZM41.847,36.644 L40.851,36.644 L40.851,66.489 L41.847,66.489 L41.847,36.644 ZM37.363,33.082 C35.571,33.082 33.771,33.226 31.900,33.513 C31.900,31.235 31.900,28.956 31.900,26.676 C33.781,26.324 35.572,26.148 37.363,26.148 C39.154,26.148 40.945,26.324 42.826,26.676 C42.826,28.956 42.826,31.235 42.826,33.513 C40.954,33.226 39.155,33.082 37.363,33.082 ZM33.568,25.410 L33.568,20.308 C36.190,19.860 38.536,19.860 41.158,20.308 L41.158,25.410 C39.868,25.243 38.613,25.157 37.363,25.157 C36.113,25.157 34.858,25.243 33.568,25.410 ZM33.850,19.260 C33.850,17.709 33.850,16.156 33.850,14.604 C35.060,14.377 36.211,14.264 37.363,14.264 C38.514,14.264 39.666,14.378 40.875,14.604 C40.875,16.156 40.875,17.709 40.875,19.260 C38.470,18.889 36.255,18.889 33.850,19.260 ZM34.793,13.450 C35.303,8.890 36.652,6.056 37.164,4.923 L37.164,-0.001 L37.562,-0.001 L37.562,4.923 C38.074,6.056 39.425,8.889 39.934,13.450 C39.059,13.332 38.210,13.273 37.363,13.273 C36.516,13.273 35.667,13.332 34.793,13.450 ZM3.173,33.514 C3.173,31.235 3.173,28.956 3.173,26.677 C5.054,26.324 6.844,26.149 8.635,26.149 C10.426,26.149 12.218,26.324 14.099,26.677 C14.099,28.956 14.099,31.235 14.099,33.514 C12.227,33.226 10.428,33.082 8.635,33.082 C6.843,33.082 5.044,33.226 3.173,33.514 ZM4.841,25.410 L4.841,20.308 C7.462,19.860 9.809,19.860 12.431,20.308 L12.431,25.410 C11.140,25.243 9.886,25.157 8.635,25.157 C7.385,25.157 6.131,25.243 4.841,25.410 ZM5.123,19.260 C5.123,17.709 5.123,16.156 5.123,14.604 C6.333,14.377 7.484,14.264 8.635,14.264 C9.787,14.264 10.939,14.377 12.148,14.604 C12.148,16.156 12.147,17.709 12.148,19.260 C9.743,18.889 7.528,18.889 5.123,19.260 ZM6.066,13.450 C6.575,8.889 7.926,6.055 8.437,4.922 L8.437,-0.001 L8.836,-0.001 L8.836,4.924 C9.347,6.057 10.697,8.890 11.206,13.450 C10.332,13.332 9.483,13.273 8.635,13.273 C7.789,13.273 6.940,13.332 6.066,13.450 Z" class="cls-1"/>
</svg>
