<?xml version="1.0" encoding="utf-8"?>
<svg xmlns="http://www.w3.org/2000/svg"
	xmlns:xlink="http://www.w3.org/1999/xlink"
	width="45px" height="34px" viewBox="0 0 45 34">
<path fillRule="evenodd" d="M 42.13-0C 42.13-0 2.86-0 2.86-0 2.86-0 2.86 29.32 2.86 29.32 2.86 29.32 42.13 29.32 42.13 29.32 42.13 29.32 42.13-0 42.13-0 42.13-0 42.13-0 42.13-0ZM 40.2 26.34C 40.2 26.34 32.95 26.34 32.95 26.34 32.95 26.34 32.95 25.11 32.95 25.11 32.95 23.62 31.7 21.79 30.18 21.04 30.18 21.04 26.67 19.33 26.67 19.33 26.67 19.33 24.37 24.26 24.37 24.26 24.37 24.26 23.22 21.07 23.22 21.07 22.98 21.12 22.75 21.18 22.5 21.18 22.25 21.18 22.01 21.12 21.78 21.07 21.78 21.07 20.57 24.43 20.57 24.43 20.57 24.43 18.22 19.39 18.22 19.39 18.22 19.39 14.82 21.04 14.82 21.04 13.3 21.79 12.05 23.62 12.05 25.1 12.05 25.1 12.05 26.34 12.05 26.34 12.05 26.34 4.8 26.34 4.8 26.34 4.8 26.34 4.8 1.99 4.8 1.99 4.8 1.99 40.2 1.99 40.2 1.99 40.2 1.99 40.2 26.34 40.2 26.34 40.2 26.34 40.2 26.34 40.2 26.34ZM 45 30.51C 45 30.51 45 33.99 45 33.99 45 33.99-0.01 33.99-0.01 33.99-0.01 33.99-0.01 30.51-0.01 30.51-0.01 30.51 20.24 30.51 20.24 30.51 20.24 30.51 20.24 31.26 20.24 31.26 20.24 31.26 24.76 31.26 24.76 31.26 24.76 31.26 24.76 30.51 24.76 30.51 24.76 30.51 45 30.51 45 30.51ZM 15.8 15.08C 16.23 16.81 17.29 18.3 18.77 19.28 18.8 19.57 19.02 19.89 19.36 20.07 19.84 20.32 20.37 20.24 20.54 19.89 20.72 19.54 20.48 19.05 20.01 18.8 19.72 18.65 19.41 18.63 19.17 18.72 17.87 17.87 16.93 16.59 16.51 15.11 16.94 14.97 17.25 14.56 17.25 14.07 17.25 14.07 17.25 13.59 17.25 13.59 17.83 16.57 19.95 19.33 22.49 19.33 25.03 19.33 27.16 16.57 27.73 13.59 27.73 13.59 27.73 14.07 27.73 14.07 27.73 14.68 28.21 15.16 28.8 15.16 29.39 15.16 29.86 14.67 29.86 14.07 29.86 14.07 29.86 11.8 29.86 11.8 29.86 11.41 29.66 11.07 29.37 10.88 28.98 7.34 26.04 4.58 22.49 4.58 18.94 4.58 16.01 7.34 15.61 10.88 15.32 11.07 15.12 11.41 15.12 11.8 15.12 11.8 15.12 14.07 15.12 14.07 15.13 14.53 15.4 14.92 15.8 15.08ZM 22.5 5.28C 25.62 5.28 28.2 7.64 28.66 10.72 28.31 10.77 28.01 10.99 27.86 11.3 27.54 8.28 25.27 6.68 22.5 6.68 19.73 6.68 17.46 8.28 17.14 11.3 17.03 11.08 16.84 10.89 16.61 10.79 16.57 10.72 16.52 10.67 16.44 10.64 16.41 10.63 16.37 10.63 16.35 10.62 16.84 7.59 19.41 5.28 22.5 5.28Z" fill="rgb(0,0,0)" opacity="0.43"/></svg>