<?xml version="1.0" encoding="utf-8"?>
<svg xmlns="http://www.w3.org/2000/svg"
	xmlns:xlink="http://www.w3.org/1999/xlink"
	width="43px" height="45px" viewBox="0 0 43 45">
<path fillRule="evenodd" d="M 8.04 45C 7.48 45 7.15 44.96 7.06 44.95 6.92 44.94 6.77 44.87 6.66 44.76 6.66 44.76 6.65 44.75 6.65 44.75 6.65 44.75 3.25 41.32 3.25 41.32 1.97 40.03 1.97 37.92 3.25 36.63 3.25 36.63 9.69 30.13 9.69 30.13 10.31 29.5 11.14 29.16 12.02 29.16 12.9 29.16 13.72 29.5 14.35 30.13 14.35 30.13 17.52 33.34 17.52 33.34 18.51 33.27 22.26 32.7 26.59 28.32 30.96 23.92 31.41 20.27 31.45 19.31 31.45 19.31 28.26 16.09 28.26 16.09 26.97 14.79 26.97 12.69 28.26 11.39 28.26 11.39 34.69 4.9 34.69 4.9 35.98 3.6 38.07 3.6 39.35 4.9 39.35 4.9 42.74 8.32 42.74 8.32 42.75 8.32 42.75 8.33 42.75 8.33 42.75 8.33 42.75 8.33 42.75 8.33 42.86 8.45 42.92 8.59 42.94 8.73 43.02 9.29 44.19 19.65 31.1 32.87 20.08 43.99 10.98 45 8.04 45ZM 17.54 34.75C 17.54 34.75 8.83 43.54 8.83 43.54 12.18 43.31 20.41 41.66 30.11 31.87 39.81 22.08 41.37 13.84 41.57 10.51 41.57 10.51 32.85 19.31 32.85 19.31 32.81 20.49 32.31 24.55 27.58 29.32 22.83 34.12 18.71 34.69 17.54 34.75ZM 12.02 30.57C 11.53 30.57 11.05 30.76 10.68 31.13 10.68 31.13 4.24 37.62 4.24 37.62 3.89 37.99 3.69 38.47 3.69 38.98 3.69 39.49 3.89 39.97 4.24 40.33 4.24 40.33 7.14 43.25 7.14 43.25 7.14 43.25 16.26 34.05 16.26 34.05 16.26 34.05 13.36 31.13 13.36 31.13 12.99 30.76 12.5 30.57 12.02 30.57ZM 37.02 5.33C 36.52 5.33 36.04 5.53 35.68 5.89 35.68 5.89 29.25 12.39 29.25 12.39 28.89 12.75 28.69 13.23 28.69 13.74 28.69 14.25 28.89 14.73 29.25 15.09 29.25 15.09 32.15 18.02 32.15 18.02 32.15 18.02 41.26 8.82 41.26 8.82 41.26 8.82 38.36 5.89 38.36 5.89 38 5.53 37.53 5.33 37.02 5.33ZM 11.02 22.63C 10.63 22.63 10.32 22.31 10.32 21.92 10.32 15.58 15.44 10.41 21.72 10.41 22.11 10.41 22.42 10.73 22.42 11.12 22.42 11.51 22.11 11.83 21.72 11.83 16.21 11.83 11.72 16.36 11.72 21.92 11.72 22.31 11.41 22.63 11.02 22.63ZM 5.8 22.63C 5.41 22.63 5.1 22.31 5.1 21.92 5.1 12.67 12.56 5.14 21.72 5.14 22.11 5.14 22.42 5.46 22.42 5.85 22.42 6.24 22.11 6.55 21.72 6.55 13.33 6.55 6.5 13.45 6.5 21.92 6.5 22.31 6.18 22.63 5.8 22.63ZM 0.7 22.63C 0.31 22.63 0 22.31 0 21.92 0 9.83 9.74-0 21.72-0 22.11-0 22.42 0.31 22.42 0.7 22.42 1.09 22.11 1.41 21.72 1.41 10.52 1.41 1.4 10.61 1.4 21.92 1.4 22.31 1.09 22.63 0.7 22.63Z" fill="rgb(0,0,0)" opacity="0.54"/></svg>