<?xml version="1.0" encoding="utf-8"?>
<svg xmlns="http://www.w3.org/2000/svg"
	xmlns:xlink="http://www.w3.org/1999/xlink"
	width="24px" height="40px" viewBox="0 0 24 40">
<path fillRule="evenodd" d="M 22.75 3.63C 22.75 3.63 22.75 6.72 22.75 6.72 22.75 7.53 22.38 8.68 21.92 9.35 21.92 9.35 14.43 20 14.43 20 14.43 20 21.92 30.65 21.92 30.65 22.38 31.31 22.75 32.47 22.75 33.28 22.75 33.28 22.75 36.37 22.75 36.37 23.48 36.63 24 37.31 24 38.12 24 39.16 23.15 40 22.11 40 22.11 40 1.89 40 1.89 40 0.85 40-0 39.16-0 38.12-0 37.31 0.54 36.62 1.28 36.36 1.28 36.36 1.28 33.28 1.28 33.28 1.28 32.47 1.64 31.31 2.11 30.65 2.11 30.65 9.6 20 9.6 20 9.6 20 2.11 9.35 2.11 9.35 1.64 8.68 1.28 7.53 1.28 6.72 1.28 6.72 1.28 3.64 1.28 3.64 0.54 3.38-0 2.69-0 1.87-0 0.84 0.85-0 1.89-0 1.89-0 22.11-0 22.11-0 23.15-0 24 0.84 24 1.87 24 2.68 23.48 3.37 22.75 3.63ZM 22.11 1.25C 22.11 1.25 1.89 1.25 1.89 1.25 1.55 1.25 1.26 1.53 1.26 1.87 1.26 2.22 1.55 2.5 1.89 2.5 1.89 2.5 1.91 2.5 1.91 2.5 1.91 2.5 17.62 2.5 17.62 2.5 17.62 2.5 17.7 2.5 17.7 2.5 18.05 2.5 18.33 2.78 18.33 3.12 18.33 3.47 18.05 3.75 17.7 3.75 17.7 3.75 17.62 3.75 17.62 3.75 17.62 3.75 2.54 3.75 2.54 3.75 2.54 3.75 2.54 6.72 2.54 6.72 2.54 7.28 2.82 8.18 3.15 8.64 3.15 8.64 10.88 19.64 10.88 19.64 11.03 19.86 11.03 20.14 10.88 20.36 10.88 20.36 3.15 31.36 3.15 31.36 2.82 31.82 2.54 32.72 2.54 33.28 2.54 33.28 2.54 36.25 2.54 36.25 2.54 36.25 17.78 36.25 17.78 36.25 18.12 36.25 18.41 36.53 18.41 36.87 18.41 37.22 18.12 37.5 17.78 37.5 17.78 37.5 17.7 37.5 17.7 37.5 17.7 37.5 17.7 37.5 17.7 37.5 17.7 37.5 1.89 37.5 1.89 37.5 1.55 37.5 1.26 37.78 1.26 38.12 1.26 38.47 1.55 38.75 1.89 38.75 1.89 38.75 22.11 38.75 22.11 38.75 22.45 38.75 22.74 38.47 22.74 38.12 22.74 37.78 22.45 37.5 22.11 37.5 22.11 37.5 20.21 37.5 20.21 37.5 19.86 37.5 19.58 37.22 19.58 36.87 19.58 36.53 19.86 36.25 20.21 36.25 20.21 36.25 20.22 36.25 20.22 36.25 20.22 36.25 20.22 36.25 20.22 36.25 20.22 36.25 21.49 36.25 21.49 36.25 21.49 36.25 21.49 33.28 21.49 33.28 21.49 32.72 21.2 31.82 20.88 31.36 20.88 31.36 13.14 20.36 13.14 20.36 12.99 20.14 12.99 19.86 13.14 19.64 13.14 19.64 20.88 8.64 20.88 8.64 21.2 8.18 21.49 7.28 21.49 6.72 21.49 6.72 21.49 3.75 21.49 3.75 21.49 3.75 20.22 3.75 20.22 3.75 20.22 3.75 20.21 3.75 20.21 3.75 19.86 3.75 19.58 3.47 19.58 3.12 19.58 2.78 19.86 2.5 20.21 2.5 20.21 2.5 20.22 2.5 20.22 2.5 20.22 2.5 22.11 2.5 22.11 2.5 22.45 2.5 22.74 2.22 22.74 1.87 22.74 1.53 22.45 1.25 22.11 1.25ZM 12.53 18.32C 12.41 18.49 12.22 18.59 12.01 18.59 11.81 18.59 11.61 18.49 11.49 18.32 11.49 18.32 8.53 14.1 8.53 14.1 8.4 13.91 8.38 13.66 8.49 13.46 8.6 13.25 8.81 13.12 9.05 13.12 9.05 13.12 14.98 13.12 14.98 13.12 15.21 13.12 15.43 13.25 15.54 13.46 15.65 13.66 15.63 13.91 15.49 14.1 15.49 14.1 12.53 18.32 12.53 18.32ZM 10.26 14.37C 10.26 14.37 12.01 16.87 12.01 16.87 12.01 16.87 13.77 14.37 13.77 14.37 13.77 14.37 10.26 14.37 10.26 14.37ZM 12.01 21.41C 12.22 21.41 12.41 21.51 12.53 21.68 12.53 21.68 19.84 32.07 19.84 32.07 19.84 32.08 19.85 32.08 19.85 32.09 20.02 32.35 20.21 32.95 20.22 33.26 20.22 33.27 20.22 33.28 20.22 33.28 20.22 33.28 20.22 34.37 20.22 34.37 20.22 34.72 19.94 35 19.59 35 19.59 35 4.43 35 4.43 35 4.09 35 3.8 34.72 3.8 34.37 3.8 34.37 3.8 33.28 3.8 33.28 3.8 33.28 3.8 33.27 3.8 33.26 3.81 32.95 4 32.35 4.17 32.09 4.18 32.08 4.18 32.08 4.19 32.07 4.19 32.07 11.49 21.68 11.49 21.68 11.61 21.51 11.81 21.41 12.01 21.41ZM 5.07 33.3C 5.07 33.3 5.07 33.75 5.07 33.75 5.07 33.75 18.96 33.75 18.96 33.75 18.96 33.75 18.96 33.3 18.96 33.3 18.95 33.19 18.85 32.87 18.79 32.77 18.79 32.77 12.01 23.13 12.01 23.13 12.01 23.13 5.23 32.77 5.23 32.77 5.18 32.87 5.08 33.19 5.07 33.3Z" fill="rgb(0,0,0)" opacity="0.49"/></svg>