<?xml version="1.0" encoding="utf-8"?>
<svg xmlns="http://www.w3.org/2000/svg"
	xmlns:xlink="http://www.w3.org/1999/xlink"
	width="45px" height="33px" viewBox="0 0 45 33">
<path fillRule="evenodd" d="M 40.68 15.5C 41 15.5 41.26 15.75 41.26 16.07 41.26 16.39 41 16.64 40.68 16.64 40.37 16.64 40.11 16.39 40.11 16.07 40.11 15.75 40.37 15.5 40.68 15.5ZM 43.85 17.93C 43.85 17.93 43.56 18.08 43.56 18.08 43.56 18.08 43.41 18.51 43.27 18.65 43.27 18.8 43.27 19.08 43.41 19.37 43.7 19.66 44.13 19.8 44.42 19.94 44.28 19.94 43.99 19.94 43.85 19.94 43.99 20.37 44.42 20.66 44.85 20.8 44.85 20.95 44.85 20.95 44.85 20.95 44.85 21.09 44.85 21.09 44.85 21.09 44.56 21.23 44.42 21.38 44.13 21.52 44.28 22.09 44.42 22.67 44.42 23.24 44.42 23.24 44.42 23.53 44.42 23.53 44.42 24.25 43.85 24.82 43.13 24.82 43.13 24.82 37.09 24.82 37.09 24.82 36.95 24.53 37.09 24.39 37.38 24.1 37.66 23.67 38.67 22.96 38.67 22.96 38.67 22.96 38.67 22.81 38.67 22.81 38.67 22.67 38.67 22.67 38.67 22.67 38.67 22.67 37.66 22.38 37.66 22.38 37.38 22.38 37.09 22.24 36.95 22.09 36.95 22.09 38.53 21.52 38.53 21.52 38.53 21.52 38.53 21.52 38.53 21.38 38.53 21.23 38.38 21.23 38.38 21.23 38.38 21.23 36.66 20.8 36.66 20.8 36.08 20.66 35.36 20.52 35.22 20.09 34.93 19.66 35.22 19.37 35.22 19.23 35.22 19.23 35.8 19.23 35.8 19.23 35.94 19.23 36.23 19.08 36.37 19.08 37.23 20.23 38.38 20.8 39.1 20.8 39.96 20.8 41.26 20.09 41.98 18.94 42.26 18.65 42.41 18.22 42.41 18.08 42.55 17.5 42.7 16.93 42.7 16.36 42.7 16.07 42.7 15.93 42.7 15.64 42.12 15.21 41.26 14.92 40.25 14.78 40.25 14.78 40.39 14.92 40.39 14.92 40.39 14.92 40.39 15.06 40.39 15.06 40.39 15.21 40.39 15.21 40.25 15.21 39.53 14.92 38.67 14.92 37.95 14.2 37.81 13.77 37.52 13.34 37.23 13.06 37.23 12.48 37.23 11.91 37.09 11.48 37.66 11.19 38.38 11.05 39.1 11.05 40.54 11.05 41.69 11.48 42.41 12.48 42.84 13.06 43.13 13.77 43.27 14.78 43.27 14.78 43.7 14.78 43.7 14.78 43.7 11.91 42.12 10.47 39.1 10.47 38.24 10.47 37.52 10.62 36.95 10.76 36.95 10.62 36.8 10.33 36.8 10.19 37.52 10.04 38.24 9.9 39.1 9.9 40.83 9.9 42.12 10.33 42.98 11.19 43.99 12.05 44.42 13.34 44.42 14.92 44.71 15.06 45 15.35 45 15.78 45 15.78 45 16.93 45 16.93 45 17.5 44.56 17.93 43.85 17.93ZM 38.1 18.51C 38.24 18.22 38.53 18.08 38.96 18.08 39.53 18.08 39.96 18.36 39.96 18.8 39.96 19.23 39.53 19.51 38.96 19.51 38.67 19.51 38.24 19.37 38.1 19.08 37.66 19.08 37.09 18.94 36.66 18.8 36.95 18.65 37.23 18.51 37.23 18.36 37.52 18.51 37.81 18.51 38.1 18.51ZM 30.62 14.2C 31.18 14.2 31.63 14.65 31.63 15.21 31.63 15.76 31.18 16.21 30.62 16.21 30.07 16.21 29.61 15.76 29.61 15.21 29.61 14.65 30.07 14.2 30.62 14.2ZM 37.66 14.49C 37.66 14.49 37.66 16.36 37.66 16.36 37.66 17.36 36.95 18.08 36.08 18.08 36.08 18.08 35.94 18.08 35.94 18.08 35.94 18.08 34.93 18.08 34.93 18.08 34.93 18.08 34.64 18.65 34.5 18.94 34.5 19.23 34.5 19.66 34.79 20.09 35.22 20.66 35.8 20.95 36.37 21.09 36.37 21.09 36.37 21.23 36.37 21.23 36.37 21.38 36.23 21.38 36.23 21.38 35.94 21.52 35.8 21.52 35.51 21.52 35.8 21.95 36.23 22.38 36.95 22.67 37.09 22.67 37.09 22.67 37.09 22.81 37.09 22.96 37.09 23.1 36.95 23.1 36.8 23.24 36.66 23.24 36.51 23.24 36.08 23.39 35.94 23.82 36.08 24.25 36.23 24.96 36.37 25.54 36.37 26.25 36.37 26.25 36.37 26.69 36.37 26.69 36.37 27.98 35.36 28.84 34.21 28.84 34.21 28.84 24.73 28.84 24.73 28.84 24.73 28.26 24.58 27.55 24.44 26.97 24.3 26.54 24.44 26.11 24.87 25.82 25.3 25.54 26.31 24.68 26.31 24.68 26.45 24.53 26.45 24.53 26.45 24.39 26.45 24.39 26.45 24.25 26.31 24.25 26.31 24.25 25.59 23.96 25.59 23.96 25.01 23.82 24.58 23.53 24.15 23.24 24.3 23.24 24.3 23.1 24.44 23.1 24.44 23.1 25.73 22.53 25.73 22.53 25.88 22.38 25.88 22.38 25.88 22.24 25.88 22.09 25.88 21.95 25.73 21.95 25.73 21.95 24.44 21.66 24.44 21.66 23.72 21.52 22.71 21.09 22.28 20.52 21.99 20.23 21.99 19.8 21.99 19.51 21.99 19.51 22.28 18.94 22.28 18.94 22.28 18.94 23.43 18.94 23.43 18.94 23.86 18.94 24.15 18.94 24.44 18.8 25.16 19.08 25.88 19.23 26.6 19.23 26.88 18.8 27.31 18.51 28.03 18.51 28.89 18.51 29.61 19.08 29.61 19.66 29.61 20.23 28.89 20.8 28.03 20.8 27.46 20.8 26.88 20.52 26.6 20.09 25.73 19.94 24.58 19.8 23.72 19.37 25.01 21.23 27.03 22.24 28.32 22.24 29.61 22.24 31.63 21.38 32.92 19.37 33.35 18.8 33.49 18.22 33.64 17.93 33.78 17.07 34.07 16.21 34.07 15.21 34.07 14.78 34.07 14.49 34.07 14.06 33.21 13.34 31.91 12.77 30.19 12.62 30.33 12.77 30.48 12.91 30.33 13.06 30.19 13.2 30.05 13.2 29.9 13.2 28.75 12.91 27.17 12.77 26.02 10.9 26.02 10.76 26.02 10.76 25.88 10.76 25.73 10.76 25.73 10.76 25.73 10.9 25.59 10.76 25.59 10.62 25.45 10.62 25.45 9.47 25.3 8.46 25.01 7.46 25.88 7.03 27.03 6.74 28.32 6.74 30.62 6.74 32.49 7.46 33.64 9.04 34.36 10.04 34.79 11.19 35.08 12.77 35.08 12.77 35.65 12.77 35.65 12.77 35.51 8.32 32.92 5.88 28.18 5.88 26.74 5.88 25.59 6.03 24.58 6.45 24.58 6.17 24.44 5.88 24.3 5.59 25.45 5.16 26.74 4.88 28.32 4.88 30.91 4.88 33.06 5.59 34.5 7.03 36.08 8.46 36.8 10.47 36.8 13.06 37.38 13.34 37.66 13.92 37.66 14.49ZM 25.88 13.2C 25.88 13.2 25.88 15.78 25.88 15.78 25.88 17.07 24.87 18.08 23.58 18.08 23.58 18.08 23.29 18.08 23.29 18.08 23.29 18.08 21.99 18.08 21.99 18.08 21.99 18.08 21.56 18.8 21.42 19.23 21.42 19.51 21.42 20.23 21.85 20.8 22.28 21.52 23.43 21.95 24.15 22.24 24.15 22.38 24.15 22.38 24.15 22.38 24.15 22.53 24.15 22.53 24.15 22.53 23.86 22.53 23.58 22.67 23.29 22.67 23.29 22.67 23.14 22.67 23.14 22.81 23 22.96 23.14 22.96 23.14 23.1 23.72 23.67 24.3 24.25 25.16 24.53 25.3 24.53 25.3 24.53 25.3 24.68 25.3 24.82 25.16 24.96 25.16 24.96 25.01 25.11 24.87 25.25 24.73 25.39 24.15 25.82 23.86 26.54 24.01 27.26 24.15 27.98 24.3 28.84 24.3 29.7 24.3 29.7 24.3 30.13 24.3 30.13 24.3 31.71 23 33 21.42 33 21.42 33 4.31 33 4.31 33 2.73 33 1.44 31.71 1.44 30.13 1.44 30.13 1.44 29.56 1.44 29.56 1.44 28.41 1.73 27.26 2.16 26.11 2.16 25.97 2.16 25.82 2.01 25.82 1.44 25.54 1.01 25.25 0.58 24.96 0.43 24.82 0.43 24.82 0.43 24.68 0.43 24.68 0.43 24.53 0.58 24.53 1.44 24.1 2.01 23.67 2.59 23.1 2.59 22.96 2.59 22.96 2.59 22.81 2.59 22.81 2.59 22.67 2.45 22.67 2.45 22.67 2.3 22.67 2.3 22.67 2.3 22.53 2.16 22.53 2.16 22.38 2.16 22.24 2.16 22.09 2.3 22.09 2.88 21.81 3.59 21.38 4.03 20.8 4.46 20.23 4.46 19.66 4.46 19.23 4.17 18.8 3.88 18.08 3.88 18.08 3.88 18.08 2.3 18.08 2.3 18.08 1.01 18.08 0 17.07 0 15.78 0 15.78 0 13.2 0 13.2 0 12.34 0.43 11.62 1.15 11.19 1.15 7.6 2.3 4.88 4.31 2.87 6.33 1 9.2-0 12.94-0 16.68-0 19.55 1 21.56 2.87 23.72 4.73 24.73 7.6 24.73 11.19 25.45 11.62 25.88 12.34 25.88 13.2ZM 4.89 14.2C 4.89 15.35 5.18 16.5 5.46 17.5 6.76 19.08 8.91 19.51 10.78 19.66 11.07 19.08 11.93 18.65 12.79 18.65 14.09 18.65 15.1 19.37 15.1 20.23 15.1 21.09 14.09 21.81 12.79 21.81 11.79 21.81 10.93 21.38 10.64 20.8 9.34 20.8 7.91 20.52 6.61 19.94 8.34 22.53 11.21 23.96 12.94 23.96 14.66 23.96 17.54 22.67 19.26 19.94 19.84 19.08 20.13 18.36 20.27 17.93 20.56 16.79 20.85 15.5 21.28 14.06 21.28 13.49 21.13 12.91 21.13 12.34 20.13 11.48 18.26 10.76 15.81 10.47 15.96 10.62 15.96 10.62 16.1 10.76 16.24 10.9 16.24 11.19 16.1 11.33 15.96 11.62 15.67 11.62 15.53 11.62 14.09 11.33 11.79 11.19 10.06 8.89 10.06 8.75 9.78 8.75 9.63 8.75 9.34 8.75 9.2 8.89 9.2 9.04 8.63 11.19 6.76 12.91 4.89 13.2 4.89 13.49 4.89 13.92 4.89 14.2ZM 12.65 1.43C 6.04 1.43 2.45 4.73 2.3 11.05 2.3 11.05 3.31 11.05 3.31 11.05 3.59 9.04 4.31 7.17 5.32 5.88 7.04 3.87 9.49 2.73 12.79 2.73 16.1 2.73 18.54 3.73 20.27 5.88 21.28 7.17 21.99 8.89 22.28 11.05 22.28 11.05 23 11.05 23 11.05 22.86 4.73 19.26 1.43 12.65 1.43ZM 9.34 12.91C 10.06 12.91 10.64 13.49 10.64 14.2 10.64 14.92 10.06 15.5 9.34 15.5 8.63 15.5 8.05 14.92 8.05 14.2 8.05 13.49 8.63 12.91 9.34 12.91ZM 16.1 12.91C 16.82 12.91 17.4 13.49 17.4 14.2 17.4 14.92 16.82 15.5 16.1 15.5 15.39 15.5 14.81 14.92 14.81 14.2 14.81 13.49 15.39 12.91 16.1 12.91Z" fill="rgb(0,0,0)" opacity="0.39"/></svg>