<?xml version="1.0" encoding="utf-8"?>
<svg xmlns="http://www.w3.org/2000/svg"
	xmlns:xlink="http://www.w3.org/1999/xlink"
	width="42px" height="37px" viewBox="0 0 42 37">
<path fillRule="evenodd" d="M 38.52 27.93C 38.52 27.93 27.02 27.93 27.02 27.93 27.02 27.93 27.02 30.15 27.02 30.15 29.23 30.39 30.97 32.28 30.97 34.6 30.97 34.6 30.97 35.92 30.97 35.92 30.97 36.52 30.49 37 29.91 37 29.91 37 12.09 37 12.09 37 11.51 37 11.03 36.52 11.03 35.92 11.03 35.92 11.03 34.6 11.03 34.6 11.03 32.28 12.77 30.39 14.98 30.15 14.98 30.15 14.98 28.25 14.98 28.25 15.73 27.9 16.32 27.27 16.62 26.5 16.68 26.36 16.73 26.22 16.76 26.07 17.05 26.16 17.35 26.2 17.65 26.2 17.94 26.2 18.22 26.16 18.49 26.09 19.11 25.92 19.67 25.55 20.08 25.06 20.08 25.06 38.52 25.06 38.52 25.06 38.88 25.06 39.18 24.76 39.18 24.39 39.18 24.39 39.18 16.35 39.18 16.35 39.71 15.3 39.67 14.1 39.18 13.11 39.18 13.11 39.18 10.42 39.18 10.42 39.29 10.19 39.39 9.96 39.45 9.71 39.68 8.86 39.58 7.96 39.18 7.16 39.18 7.16 39.18 3.54 39.18 3.54 39.18 3.17 38.88 2.87 38.52 2.87 38.52 2.87 36.31 2.87 36.31 2.87 35.75 2.49 35.09 2.26 34.4 2.26 33.86 2.26 33.32 2.39 32.84 2.64 32.77 1.55 32.22 0.61 31.41-0 31.41-0 38.52-0 38.52-0 40.44-0 42 1.59 42 3.54 42 3.54 42 24.39 42 24.39 42 26.34 40.44 27.93 38.52 27.93ZM 15.46 32.25C 14.18 32.25 13.15 33.31 13.15 34.6 13.15 34.6 13.15 34.84 13.15 34.84 13.15 34.84 28.85 34.84 28.85 34.84 28.85 34.84 28.85 34.6 28.85 34.6 28.85 33.31 27.82 32.25 26.55 32.25 26.55 32.25 15.46 32.25 15.46 32.25ZM 33.71 4.61C 33.92 4.48 34.16 4.42 34.4 4.42 34.87 4.42 35.34 4.67 35.59 5.13 35.59 5.13 37.27 8.08 37.27 8.08 37.45 8.41 37.5 8.79 37.41 9.15 37.32 9.51 37.09 9.82 36.77 10.01 36.77 10.01 35.5 10.75 35.5 10.75 35.54 11.09 35.6 11.41 35.6 11.76 35.6 12.1 35.54 12.43 35.5 12.76 35.5 12.76 36.77 13.51 36.77 13.51 37.43 13.89 37.65 14.76 37.27 15.43 37.27 15.43 35.59 18.39 35.59 18.39 35.41 18.71 35.11 18.95 34.75 19.05 34.63 19.08 34.52 19.09 34.4 19.09 34.16 19.09 33.92 19.03 33.71 18.9 33.71 18.9 32.44 18.16 32.44 18.16 31.92 18.57 31.35 18.94 30.73 19.2 30.73 19.2 30.73 20.65 30.73 20.65 30.73 21.43 30.11 22.06 29.35 22.06 29.35 22.06 25.99 22.06 25.99 22.06 25.23 22.06 24.61 21.43 24.61 20.65 24.61 20.65 24.61 19.2 24.61 19.2 23.99 18.94 23.42 18.57 22.89 18.16 22.89 18.16 21.71 18.86 21.71 18.86 21.57 18.63 21.41 18.41 21.22 18.22 21.63 17.81 21.93 17.3 22.09 16.72 22.31 15.87 22.2 14.99 21.77 14.23 21.77 14.23 20.43 11.88 20.43 11.88 20.27 11.58 20.04 11.33 19.79 11.1 19.81 10.98 19.82 10.87 19.84 10.75 19.84 10.75 18.57 10.01 18.57 10.01 17.91 9.62 17.69 8.76 18.07 8.08 18.07 8.08 19.75 5.13 19.75 5.13 19.93 4.8 20.23 4.57 20.59 4.47 20.7 4.44 20.82 4.42 20.94 4.42 21.18 4.42 21.42 4.48 21.63 4.61 21.63 4.61 22.89 5.35 22.89 5.35 23.42 4.94 23.99 4.57 24.61 4.31 24.61 4.31 24.61 2.86 24.61 2.86 24.61 2.08 25.23 1.45 25.99 1.45 25.99 1.45 29.35 1.45 29.35 1.45 30.11 1.45 30.73 2.08 30.73 2.86 30.73 2.86 30.73 4.31 30.73 4.31 31.35 4.57 31.92 4.94 32.44 5.35 32.44 5.35 33.71 4.61 33.71 4.61ZM 27.67 6.65C 24.91 6.65 22.66 8.94 22.66 11.76 22.66 14.57 24.91 16.86 27.67 16.86 30.43 16.86 32.68 14.57 32.68 11.76 32.68 8.94 30.43 6.65 27.67 6.65ZM 27.67 15.42C 25.68 15.42 24.07 13.78 24.07 11.76 24.07 9.73 25.68 8.09 27.67 8.09 29.66 8.09 31.27 9.73 31.27 11.76 31.27 13.78 29.66 15.42 27.67 15.42ZM 20.94 2.26C 20.64 2.26 20.33 2.31 20.04 2.38 19.66 2.49 19.32 2.66 19.01 2.87 19.01 2.87 3.48 2.87 3.48 2.87 3.12 2.87 2.82 3.17 2.82 3.54 2.82 3.54 2.82 14.3 2.82 14.3 2.29 15.31 2.32 16.48 2.82 17.43 2.82 17.43 2.82 19.01 2.82 19.01 2.32 19.96 2.28 21.14 2.82 22.14 2.82 22.14 2.82 24.39 2.82 24.39 2.82 24.76 3.12 25.06 3.48 25.06 3.48 25.06 4.54 25.06 4.54 25.06 4.96 25.55 5.5 25.91 6.13 26.09 6.41 26.16 6.69 26.2 6.97 26.2 7.27 26.2 7.57 26.16 7.86 26.07 8.05 26.84 8.5 27.49 9.11 27.93 9.11 27.93 3.48 27.93 3.48 27.93 1.56 27.93-0 26.34-0 24.39-0 24.39-0 3.54-0 3.54-0 1.59 1.56-0 3.48-0 3.48-0 23.93-0 23.93-0 23.12 0.61 22.57 1.55 22.5 2.64 22.02 2.39 21.49 2.26 20.94 2.26ZM 7.52 23.89C 7.35 23.99 7.16 24.04 6.97 24.04 6.88 24.04 6.78 24.03 6.69 24.01 6.41 23.93 6.17 23.74 6.02 23.49 6.02 23.49 4.69 21.14 4.69 21.14 4.39 20.6 4.57 19.92 5.09 19.61 5.09 19.61 6.1 19.02 6.1 19.02 6.07 18.75 6.02 18.49 6.02 18.22 6.02 17.95 6.07 17.69 6.1 17.42 6.1 17.42 5.09 16.83 5.09 16.83 4.57 16.52 4.39 15.84 4.69 15.31 4.69 15.31 6.02 12.96 6.02 12.96 6.17 12.7 6.41 12.51 6.69 12.44 6.78 12.41 6.88 12.4 6.98 12.4 7.17 12.4 7.35 12.45 7.52 12.55 7.52 12.55 8.52 13.14 8.52 13.14 8.94 12.81 9.39 12.52 9.88 12.31 9.88 12.31 9.88 11.16 9.88 11.16 9.88 10.54 10.37 10.04 10.98 10.04 10.98 10.04 13.64 10.04 13.64 10.04 14.25 10.04 14.74 10.54 14.74 11.16 14.74 11.16 14.74 12.31 14.74 12.31 15.24 12.52 15.68 12.81 16.1 13.14 16.1 13.14 17.11 12.55 17.11 12.55 17.28 12.45 17.46 12.4 17.65 12.4 18.03 12.4 18.4 12.6 18.6 12.96 18.6 12.96 19.94 15.31 19.94 15.31 20.08 15.56 20.12 15.87 20.05 16.15 19.97 16.44 19.78 16.68 19.53 16.83 19.53 16.83 18.53 17.42 18.53 17.42 18.56 17.69 18.6 17.95 18.6 18.22 18.6 18.49 18.56 18.75 18.53 19.02 18.53 19.02 19.53 19.61 19.53 19.61 20.06 19.92 20.24 20.6 19.94 21.14 19.94 21.14 18.6 23.49 18.6 23.49 18.46 23.74 18.21 23.93 17.93 24.01 17.84 24.03 17.75 24.04 17.65 24.04 17.46 24.04 17.27 23.99 17.11 23.89 17.11 23.89 16.1 23.31 16.1 23.31 15.68 23.63 15.24 23.92 14.74 24.13 14.74 24.13 14.74 25.28 14.74 25.28 14.74 25.9 14.25 26.4 13.64 26.4 13.64 26.4 10.98 26.4 10.98 26.4 10.37 26.4 9.88 25.9 9.88 25.28 9.88 25.28 9.88 24.13 9.88 24.13 9.39 23.92 8.94 23.63 8.52 23.31 8.52 23.31 7.52 23.89 7.52 23.89ZM 12.31 21.3C 13.98 21.3 15.34 19.92 15.34 18.22 15.34 16.52 13.98 15.14 12.31 15.14 10.64 15.14 9.29 16.52 9.29 18.22 9.29 19.92 10.64 21.3 12.31 21.3Z" fill="rgb(0,0,0)" opacity="0.40"/></svg>